<?xml version="1.0" standalone="no"?><!DOCTYPE svg PUBLIC "-//W3C//DTD SVG 1.1//EN" "http://www.w3.org/Graphics/SVG/1.1/DTD/svg11.dtd"><svg height="1200" node-id="1" sillyvg="true" template-height="1200" template-width="1200" version="1.1" viewBox="0 0 1200 1200" width="1200" xmlns="http://www.w3.org/2000/svg" xmlns:xlink="http://www.w3.org/1999/xlink"><defs node-id="30"><clipPath id="clip-path" node-id="5"><path d="M 1062.13 600.00 C 1062.13 722.56 1013.44 840.11 926.78 926.78 C 840.11 1013.44 722.56 1062.13 600.00 1062.13 C 477.44 1062.13 359.89 1013.44 273.22 926.78 C 186.56 840.11 137.87 722.56 137.87 600.00 C 137.87 477.44 186.56 359.89 273.22 273.22 C 359.89 186.56 477.44 137.87 600.00 137.87 C 722.56 137.87 840.11 186.56 926.78 273.22 C 1013.44 359.89 1062.13 477.44 1062.13 600.00 Z" fill="#000000" fill-rule="nonzero" node-id="33" stroke="none" target-height="924.26" target-width="924.26" target-x="137.87" target-y="137.87"></path></clipPath></defs><path d="M 1062.13 600.00 C 1062.13 722.56 1013.44 840.11 926.78 926.78 C 840.11 1013.44 722.56 1062.13 600.00 1062.13 C 477.44 1062.13 359.89 1013.44 273.22 926.78 C 186.56 840.11 137.87 722.56 137.87 600.00 C 137.87 477.44 186.56 359.89 273.22 273.22 C 359.89 186.56 477.44 137.87 600.00 137.87 C 722.56 137.87 840.11 186.56 926.78 273.22 C 1013.44 359.89 1062.13 477.44 1062.13 600.00 Z" fill="#ec653f" fill-rule="nonzero" node-id="37" stroke="none" target-height="924.26" target-width="924.26" target-x="137.87" target-y="137.87"></path><g node-id="77"><g clip-path="url(#clip-path)" group-id="1" id="sillyvg_g_0" node-id="39"><path d="M 899.47 594.00 C 899.47 633.85 873.38 672.15 841.19 672.15 C 809.00 672.15 782.92 639.85 782.92 600.00 C 782.92 560.15 816.01 527.85 848.19 527.85 C 880.37 527.85 899.47 554.15 899.47 594.00 Z" fill="#fde9d1" fill-rule="nonzero" group-id="1" node-id="41" stroke="#370911" stroke-linecap="round" stroke-width="14" target-height="144.30005" target-width="116.54999" target-x="782.92" target-y="527.85"></path><path d="M 418.08 600.00 C 418.08 639.85 392.31 672.15 360.52 672.15 C 328.73 672.15 302.00 633.85 302.00 594.00 C 302.00 554.15 321.85 527.85 353.64 527.85 C 385.43 527.85 418.08 560.15 418.08 600.00 Z" fill="#fde9d1" fill-rule="nonzero" group-id="1" node-id="43" stroke="#370911" stroke-linecap="round" stroke-width="14" target-height="144.30005" target-width="116.07999" target-x="302" target-y="527.85"></path><path d="M 843.28 559.30 C 843.28 714.72 734.86 840.72 601.11 840.72 C 467.36 840.72 358.94 714.72 358.94 559.30 C 358.94 403.88 467.36 277.88 601.11 277.88 C 734.86 277.88 843.28 403.88 843.28 559.30 Z" fill="#f9d9d0" fill-rule="nonzero" group-id="1" node-id="45" stroke="#370911" stroke-linecap="butt" stroke-width="10" target-height="562.83997" target-width="484.34003" target-x="358.94" target-y="277.88"></path><path d="M 1142.37 1027.66 C 1142.37 1129.66 1085.23 1227.49 983.51 1299.62 C 881.80 1371.75 743.85 1412.27 600.00 1412.27 C 456.15 1412.27 318.20 1371.75 216.49 1299.62 C 114.77 1227.49 57.63 1129.66 57.63 1027.66 C 57.63 925.66 114.77 827.83 216.49 755.70 C 318.20 683.57 456.15 643.05 600.00 643.05 C 743.85 643.05 881.80 683.57 983.51 755.70 C 1085.23 827.83 1142.37 925.66 1142.37 1027.66 Z" fill="#ffffff" fill-rule="nonzero" group-id="1" node-id="47" stroke="#360810" stroke-linecap="round" stroke-width="16" target-height="769.22003" target-width="1084.74" target-x="57.63" target-y="643.05"></path><path d="M 686.62 1014.10 C 661.62 1014.10 623.43 980.86 606.56 963.86 L 613.71 949.19 C 625.16 933.64 658.91 895.19 684.19 895.19 C 688.48 895.14 692.68 896.44 696.19 898.91 C 704.38 904.56 708.29 910.35 708.19 916.62 C 707.89 930.20 689.01 945.07 682.42 949.21 C 679.94 950.76 678.51 953.53 678.67 956.44 C 678.83 959.35 680.57 961.95 683.20 963.21 C 689.47 966.21 706.26 976.93 708.50 989.38 C 709.60 995.52 707.05 1001.74 700.70 1008.38 C 697.00 1012.24 692.42 1014.10 686.62 1014.10 Z" fill="#ea586f" fill-rule="nonzero" group-id="1" node-id="49" stroke="none" target-height="118.95996" target-width="103.03998" target-x="606.56" target-y="895.14"></path><path d="M 684.19 887.20 L 684.19 903.20 L 684.19 903.20 C 686.86 903.15 689.48 903.96 691.66 905.50 C 695.58 908.21 700.25 912.31 700.17 916.44 C 700.02 924.37 687.26 936.65 678.17 942.44 C 673.22 945.53 670.34 951.07 670.66 956.90 C 670.99 962.73 674.46 967.92 679.72 970.44 C 686.30 973.61 699.17 982.84 700.62 990.80 C 701.24 994.21 699.32 998.28 694.91 1002.91 C 693.39 1004.50 691.21 1006.13 686.63 1006.13 C 675.71 1006.13 658.10 997.13 638.31 981.49 C 629.43 974.49 621.67 967.34 616.31 962.18 L 620.57 953.43 C 627.65 944.19 635.39 935.47 643.73 927.34 C 659.61 912.02 674.37 903.24 684.21 903.23 L 684.21 887.23 M 684.21 887.23 C 648.88 887.23 606.85 945.07 606.85 945.07 L 596.94 965.42 C 596.94 965.42 650.06 1022.13 686.64 1022.13 C 694.16 1022.13 700.98 1019.73 706.50 1013.95 C 738.06 980.79 686.67 956.00 686.67 956.00 C 686.67 956.00 742.34 921.00 700.76 892.34 C 695.90 888.95 690.11 887.15 684.19 887.20 Z" fill="#271618" fill-rule="nonzero" group-id="1" node-id="51" stroke="none" target-height="134.97998" target-width="145.40002" target-x="596.94" target-y="887.15"></path><path d="M 513.38 1014.10 C 507.57 1014.10 502.97 1012.24 499.31 1008.40 C 492.95 1001.72 490.40 995.49 491.52 989.34 C 493.79 976.81 510.52 966.22 516.81 963.20 C 519.44 961.94 521.18 959.34 521.34 956.43 C 521.50 953.52 520.07 950.75 517.59 949.20 C 510.52 944.74 492.10 930.20 491.82 916.59 C 491.70 910.33 495.61 904.59 503.82 898.90 C 507.33 896.43 511.53 895.13 515.82 895.18 C 541.10 895.18 574.82 933.61 586.30 949.18 L 593.45 963.85 C 576.57 980.85 538.40 1014.09 513.39 1014.09 Z" fill="#ea586f" fill-rule="nonzero" group-id="1" node-id="53" stroke="none" target-height="118.96997" target-width="103.05002" target-x="490.4" target-y="895.13"></path><path d="M 515.81 903.20 C 525.65 903.20 540.41 911.99 556.29 927.31 C 564.63 935.44 572.37 944.15 579.45 953.40 L 583.71 962.15 C 578.34 967.31 570.58 974.42 561.71 981.46 C 541.92 997.12 524.31 1006.10 513.39 1006.10 C 508.81 1006.10 506.63 1004.47 505.11 1002.88 C 500.71 998.26 498.79 994.20 499.39 990.80 C 500.74 983.25 512.66 974.17 520.31 970.40 C 525.58 967.90 529.06 962.73 529.39 956.90 C 529.72 951.08 526.84 945.55 521.89 942.47 C 512.74 936.65 499.98 924.37 499.83 916.47 C 499.75 912.34 504.42 908.24 508.34 905.53 C 510.53 903.99 513.15 903.18 515.82 903.23 M 520.35 970.41 L 520.35 970.41 M 515.82 887.23 C 509.90 887.18 504.11 888.98 499.25 892.37 C 457.66 921.00 513.33 956.00 513.33 956.00 C 513.33 956.00 461.94 980.79 493.52 1013.92 C 499.04 1019.70 505.86 1022.10 513.38 1022.10 C 549.96 1022.10 603.08 965.39 603.08 965.39 L 593.17 945.00 C 593.17 945.00 551.17 887.16 515.81 887.16 Z" fill="#271618" fill-rule="nonzero" group-id="1" node-id="55" stroke="none" target-height="134.94" target-width="145.42001" target-x="457.66" target-y="887.16"></path><path d="M 600.00 993.91 C 584.66 993.91 570.83 984.67 564.97 970.50 C 559.10 956.33 562.34 940.02 573.19 929.17 C 584.04 918.33 600.35 915.09 614.52 920.96 C 628.69 926.83 637.92 940.66 637.92 956.00 C 637.87 976.92 620.92 993.87 600.00 993.91 Z" fill="#ea586f" fill-rule="nonzero" group-id="1" node-id="57" stroke="none" target-height="78.81995" target-width="78.82001" target-x="559.1" target-y="915.09"></path><path d="M 600.00 926.08 C 616.52 926.08 629.92 939.48 629.92 956.00 C 629.92 972.52 616.52 985.92 600.00 985.92 C 583.48 985.92 570.08 972.52 570.08 956.00 C 570.12 939.49 583.49 926.12 600.00 926.08 M 600.00 910.08 C 574.64 910.08 554.08 930.64 554.08 956.00 C 554.08 981.36 574.64 1001.92 600.00 1001.92 C 625.36 1001.92 645.92 981.36 645.92 956.00 C 645.92 930.64 625.36 910.08 600.00 910.08 Z" fill="#271618" fill-rule="nonzero" group-id="1" node-id="59" stroke="none" target-height="91.839966" target-width="91.839966" target-x="554.08" target-y="910.08"></path><path d="M 545.08 524.92 C 545.08 539.75 533.06 551.77 518.24 551.77 C 503.42 551.77 491.40 539.75 491.40 524.92 C 491.40 510.09 503.42 498.07 518.24 498.07 C 533.06 498.07 545.08 510.09 545.08 524.92 Z" fill="#271d1f" fill-rule="nonzero" group-id="1" node-id="61" stroke="none" target-height="53.700012" target-width="53.680023" target-x="491.4" target-y="498.07"></path><path d="M 708.60 524.92 C 708.60 539.75 696.58 551.77 681.76 551.77 C 666.94 551.77 654.92 539.75 654.92 524.92 C 654.92 510.09 666.94 498.07 681.76 498.07 C 696.58 498.07 708.60 510.09 708.60 524.92 Z" fill="#271d1f" fill-rule="nonzero" group-id="1" node-id="63" stroke="none" target-height="53.700012" target-width="53.679993" target-x="654.92" target-y="498.07"></path><path d="M 499.68 643.05 C 499.68 670.40 477.50 692.58 450.15 692.58 C 422.80 692.58 400.62 670.40 400.62 643.05 C 400.62 615.70 422.80 593.52 450.15 593.52 C 477.50 593.52 499.68 615.70 499.68 643.05 Z" fill="#de717e" fill-rule="nonzero" group-id="1" node-id="65" stroke="none" target-height="99.06" target-width="99.06" target-x="400.62" target-y="593.52"></path><path d="M 799.38 643.05 C 799.38 670.40 777.20 692.58 749.85 692.58 C 722.50 692.58 700.32 670.40 700.32 643.05 C 700.32 615.70 722.50 593.52 749.85 593.52 C 777.20 593.52 799.38 615.70 799.38 643.05 Z" fill="#de717e" fill-rule="nonzero" group-id="1" node-id="67" stroke="none" target-height="99.06" target-width="99.06" target-x="700.32" target-y="593.52"></path><path d="M 594.85 533.39 L 621.00 570.55 L 594.85 600.00" fill="none" group-id="1" node-id="69" stroke="#231815" stroke-linecap="round" stroke-width="16" target-height="66.609985" target-width="26.150024" target-x="594.85" target-y="533.39"></path><path d="M 357.76 559.30 C 368.94 559.30 393.52 581.65 413.64 598.41 C 433.76 615.17 459.46 643.11 459.46 643.11 C 459.46 643.11 519.80 586.11 596.91 588.35 C 674.02 590.59 737.72 643.11 737.72 643.11 C 737.72 643.11 813.72 563.77 832.72 568.24 C 851.72 572.71 876.30 658.75 847.24 748.16 C 818.18 837.57 728.78 916.90 621.50 923.60 C 514.22 930.30 383.47 867.73 352.18 747.00 C 320.89 626.27 346.59 559.30 357.76 559.30 Z" fill="#211d1e" fill-rule="nonzero" group-id="1" node-id="71" stroke="none" target-height="371" target-width="555.41" target-x="320.89" target-y="559.3"></path><path d="M 554.06 678.58 L 643.75 678.58 C 647.53 678.58 651.04 680.55 653.00 683.78 C 654.96 687.02 655.08 691.04 653.33 694.39 C 645.54 709.09 628.84 728.27 595.43 725.03 C 564.09 722.03 550.33 706.38 544.31 694.08 C 542.69 690.73 542.91 686.78 544.89 683.63 C 546.87 680.48 550.34 678.57 554.06 678.58 Z" fill="#ffffff" fill-rule="nonzero" group-id="1" node-id="73" stroke="none" target-height="49.700012" target-width="112.390015" target-x="542.69" target-y="678.57"></path><path d="M 852.25 398.00 C 841.85 346.28 829.72 256.18 673.75 214.00 C 517.78 171.82 498.75 254.51 498.75 254.51 C 498.75 254.51 467.52 241.11 384.34 283.00 C 301.16 324.89 339.28 534.69 339.28 534.69 L 338.80 610.00 L 371.60 609.37 C 366.24 588.73 363.53 567.49 363.54 546.17 C 363.54 412.39 468.29 303.94 597.54 303.94 C 726.79 303.94 831.54 412.39 831.54 546.17 C 831.55 564.81 829.49 583.40 825.38 601.59 C 844.47 597.85 846.59 591.24 850.38 577.26 C 860.69 538.88 862.65 449.68 852.25 398.00 Z" fill="#211d1e" fill-rule="nonzero" group-id="1" node-id="75" stroke="none" target-height="438.18" target-width="561.49" target-x="301.16" target-y="171.82"></path></g></g></svg>