<svg xml:space="preserve" style="enable-background:new 0 0 595.3 841.9;" viewBox="0 0 595.3 841.9" y="0px" x="0px" xmlns:xlink="http://www.w3.org/1999/xlink" xmlns="http://www.w3.org/2000/svg" id="图层_1" version="1.1">
<style type="text/css">
	.st0{fill:#FFFFFF;stroke:#040000;stroke-width:2;stroke-miterlimit:10;}
	.st1{fill:#FFFFFF;stroke:#040000;stroke-width:1.9997;stroke-miterlimit:9.9985;}
	.st2{fill:#FBE8BD;stroke:#040000;stroke-width:1.9997;stroke-miterlimit:9.9985;}
	.st3{fill:#FBE8BD;stroke:#040000;stroke-width:2;stroke-miterlimit:10;}
</style>
<g>
	<path d="M257.5,558.3l48,3.9c5.2,0.4,9.9-3.3,10.6-8.5l22.6-165.8c0.8-5.6-3.3-10.7-9-11.2l-64-5.3
		c-5.6-0.5-10.5,3.8-10.7,9.5l-6.5,167.2C248.2,553.4,252.2,557.9,257.5,558.3z" class="st0"></path>
	<path d="M242.2,359.5c0.4-4.7,4.5-8.2,9.2-7.8s8.2,4.5,7.8,9.2c0,0.2,0,0.3-0.1,0.5l78.8,6.5c0-0.2,0-0.3,0-0.5
		c0.4-4.7,4.5-8.2,9.2-7.8s8.2,4.5,7.8,9.2c0,0.2,0,0.3-0.1,0.5l0,0l-2,24.9l-112.6-9.3l2-24.9l0,0
		C242.2,359.8,242.2,359.6,242.2,359.5z" class="st0"></path>
	
		<rect height="98" width="12" class="st1" transform="matrix(8.181185e-02 -0.9966 0.9966 8.181185e-02 -85.6817 630.2592)" y="312.6" x="293.2"></rect>
	
		<rect height="23" width="6" class="st2" transform="matrix(8.181185e-02 -0.9966 0.9966 8.181185e-02 -59.776 657.193)" y="349.5" x="323.8"></rect>
	
		<rect height="8" width="81" class="st1" transform="matrix(8.181185e-02 -0.9966 0.9966 8.181185e-02 -16.836 622.8535)" y="316.6" x="289.1"></rect>
	<polygon points="244.9,497.6 328.7,504.5 337.4,447 245.7,439.5" class="st3"></polygon>
</g>
</svg>
