<?xml version="1.0" standalone="no"?><!DOCTYPE svg PUBLIC "-//W3C//DTD SVG 1.1//EN" "http://www.w3.org/Graphics/SVG/1.1/DTD/svg11.dtd"><svg height="1200" node-id="1" sillyvg="true" template-height="1200" template-width="1200" version="1.1" viewBox="0 0 1200 1200" width="1200" xmlns="http://www.w3.org/2000/svg" xmlns:xlink="http://www.w3.org/1999/xlink"><defs node-id="25"><clipPath id="clip-path" node-id="5"><path d="M 1062.13 600.00 C 1062.13 722.56 1013.44 840.11 926.78 926.78 C 840.11 1013.44 722.56 1062.13 600.00 1062.13 C 477.44 1062.13 359.89 1013.44 273.22 926.78 C 186.56 840.11 137.87 722.56 137.87 600.00 C 137.87 477.44 186.56 359.89 273.22 273.22 C 359.89 186.56 477.44 137.87 600.00 137.87 C 722.56 137.87 840.11 186.56 926.78 273.22 C 1013.44 359.89 1062.13 477.44 1062.13 600.00 Z" fill="#000000" fill-rule="nonzero" node-id="28" stroke="none" target-height="924.26" target-width="924.26" target-x="137.87" target-y="137.87"></path></clipPath></defs><path d="M 1062.13 600.00 C 1062.13 722.56 1013.44 840.11 926.78 926.78 C 840.11 1013.44 722.56 1062.13 600.00 1062.13 C 477.44 1062.13 359.89 1013.44 273.22 926.78 C 186.56 840.11 137.87 722.56 137.87 600.00 C 137.87 477.44 186.56 359.89 273.22 273.22 C 359.89 186.56 477.44 137.87 600.00 137.87 C 722.56 137.87 840.11 186.56 926.78 273.22 C 1013.44 359.89 1062.13 477.44 1062.13 600.00 Z" fill="#e3c2dc" fill-rule="nonzero" node-id="32" stroke="none" target-height="924.26" target-width="924.26" target-x="137.87" target-y="137.87"></path><g node-id="63"><g clip-path="url(#clip-path)" group-id="1" id="sillyvg_g_0" node-id="34"><path d="M 868.10 949.27 C 868.10 1087.74 748.07 1200.00 600.00 1200.00 C 451.93 1200.00 331.90 1087.74 331.90 949.27 C 331.90 810.80 451.93 698.54 600.00 698.54 C 748.07 698.54 868.10 810.80 868.10 949.27 Z" fill="#f6ad5f" fill-rule="nonzero" group-id="1" node-id="36" stroke="#370911" stroke-linecap="round" stroke-width="14" target-height="501.46002" target-width="536.19995" target-x="331.9" target-y="698.54"></path><path d="M 499.34 803.00 C 499.34 803.00 489.13 843.93 492.91 859.90 C 505.42 912.76 671.04 929.59 700.31 855.42 C 707.03 838.42 696.21 805.56 696.21 805.56 L 739.73 759.11 C 739.73 759.11 795.48 895.74 786.55 973.68 C 781.90 1014.23 734.81 1118.82 591.01 1118.82 C 510.10 1118.82 425.92 1045.54 420.34 949.32 C 414.63 850.72 461.11 764.24 461.11 764.24 L 485.77 764.24 Z" fill="#fdecdd" fill-rule="nonzero" group-id="1" node-id="38" stroke="#370911" stroke-linecap="round" stroke-width="14" target-height="359.70996" target-width="380.84998" target-x="414.63" target-y="759.11"></path><path d="M 988.86 596.05 C 988.86 648.31 954.64 698.55 912.42 698.55 C 870.20 698.55 836.00 656.18 836.00 603.92 C 836.00 551.66 879.41 509.28 921.62 509.28 C 963.83 509.28 988.86 543.78 988.86 596.05 Z" fill="#fde9d1" fill-rule="nonzero" group-id="1" node-id="40" stroke="#370911" stroke-linecap="butt" stroke-width="14" target-height="189.26999" target-width="152.85999" target-x="836" target-y="509.28"></path><path d="M 365.33 603.92 C 365.33 656.18 331.10 698.55 288.89 698.55 C 246.68 698.55 211.14 648.31 211.14 596.05 C 211.14 543.79 237.49 509.28 279.71 509.28 C 321.93 509.28 365.33 551.65 365.33 603.92 Z" fill="#fde9d1" fill-rule="nonzero" group-id="1" node-id="42" stroke="#370911" stroke-linecap="butt" stroke-width="14" target-height="189.26999" target-width="154.18999" target-x="211.14" target-y="509.28"></path><path d="M 887.34 561.45 C 887.34 720.14 758.69 848.79 600.00 848.79 C 441.31 848.79 312.66 720.14 312.66 561.45 C 312.66 402.76 441.31 274.11 600.00 274.11 C 758.69 274.11 887.34 402.76 887.34 561.45 Z" fill="#f9d9d0" fill-rule="nonzero" group-id="1" node-id="44" stroke="#370911" stroke-linecap="butt" stroke-width="14" target-height="574.68" target-width="574.68005" target-x="312.66" target-y="274.11"></path><path d="M 733.59 554.41 C 733.59 572.54 719.11 587.24 701.25 587.24 C 683.39 587.24 668.91 572.54 668.91 554.41 C 668.91 536.28 683.39 521.58 701.25 521.58 C 719.11 521.58 733.59 536.28 733.59 554.41 Z" fill="#271d1f" fill-rule="nonzero" group-id="1" node-id="46" stroke="none" target-height="65.65997" target-width="64.68005" target-x="668.91" target-y="521.58"></path><path d="M 531.09 554.41 C 531.09 572.54 516.61 587.24 498.75 587.24 C 480.89 587.24 466.41 572.54 466.41 554.41 C 466.41 536.28 480.89 521.58 498.75 521.58 C 516.61 521.58 531.09 536.28 531.09 554.41 Z" fill="#271d1f" fill-rule="nonzero" group-id="1" node-id="48" stroke="none" target-height="65.65997" target-width="64.68002" target-x="466.41" target-y="521.58"></path><path d="M 479.10 663.47 C 479.10 696.44 452.38 723.16 419.41 723.16 C 386.44 723.16 359.72 696.44 359.72 663.47 C 359.72 630.50 386.44 603.78 419.41 603.78 C 452.38 603.78 479.10 630.50 479.10 663.47 Z" fill="#de717e" fill-rule="nonzero" group-id="1" node-id="50" stroke="none" target-height="119.379944" target-width="119.380005" target-x="359.72" target-y="603.78"></path><path d="M 840.28 663.47 C 840.28 696.44 813.56 723.16 780.59 723.16 C 747.62 723.16 720.90 696.44 720.90 663.47 C 720.90 630.50 747.62 603.78 780.59 603.78 C 813.56 603.78 840.28 630.50 840.28 663.47 Z" fill="#de717e" fill-rule="nonzero" group-id="1" node-id="52" stroke="none" target-height="119.379944" target-width="119.380005" target-x="720.9" target-y="603.78"></path><path d="M 499.00 669.10 C 506.76 718.85 549.61 755.54 599.96 755.54 C 650.31 755.54 693.16 718.85 700.92 669.10 Z" fill="#ee8685" fill-rule="nonzero" group-id="1" node-id="54" stroke="#310304" stroke-linecap="butt" stroke-width="10" target-height="86.44" target-width="201.91998" target-x="499" target-y="669.1"></path><path d="M 537.91 280.89 C 537.91 280.89 501.44 296.00 516.53 332.45 C 531.62 368.90 549.23 371.45 547.97 387.79 C 546.71 404.13 520.48 409.17 530.46 418.00 C 540.44 426.83 604.57 429.32 639.78 399.14 C 674.99 368.96 706.43 317.39 693.86 301.04 C 681.29 284.69 643.86 274.86 624.69 272.12 C 558.12 266.20 537.91 280.89 537.91 280.89 Z" fill="#f6ad5f" fill-rule="nonzero" group-id="1" node-id="56" stroke="#370911" stroke-linecap="round" stroke-width="14" target-height="163.12" target-width="204.98999" target-x="501.44" target-y="266.2"></path></g></g><path d="M 888.26 593.35 C 888.26 593.35 904.20 579.80 917.00 584.06 C 924.91 586.87 931.79 591.99 936.74 598.77" fill="none" node-id="59" stroke="#370911" stroke-linecap="round" stroke-width="14" target-height="18.970032" target-width="48.47998" target-x="888.26" target-y="579.8"></path><path d="M 311.40 589.40 C 311.40 589.40 295.47 575.85 282.69 580.11 C 274.80 582.92 267.93 588.05 263.00 594.82" fill="none" node-id="61" stroke="#370911" stroke-linecap="round" stroke-width="14" target-height="18.970032" target-width="48.399994" target-x="263" target-y="575.85"></path></svg>