<?xml version="1.0" standalone="no"?><!DOCTYPE svg PUBLIC "-//W3C//DTD SVG 1.1//EN" "http://www.w3.org/Graphics/SVG/1.1/DTD/svg11.dtd"><svg height="1200" node-id="1" sillyvg="true" template-height="1200" template-width="1200" version="1.1" viewBox="0 0 1200 1200" width="1200" xmlns="http://www.w3.org/2000/svg" xmlns:xlink="http://www.w3.org/1999/xlink"><defs node-id="32"><clipPath id="clip-path" node-id="5"><path d="M 1062.13 600.00 C 1062.13 722.56 1013.44 840.11 926.78 926.78 C 840.11 1013.44 722.56 1062.13 600.00 1062.13 C 477.44 1062.13 359.89 1013.44 273.22 926.78 C 186.56 840.11 137.87 722.56 137.87 600.00 C 137.87 477.44 186.56 359.89 273.22 273.22 C 359.89 186.56 477.44 137.87 600.00 137.87 C 722.56 137.87 840.11 186.56 926.78 273.22 C 1013.44 359.89 1062.13 477.44 1062.13 600.00 Z" fill="#000000" fill-rule="nonzero" node-id="35" stroke="none" target-height="924.26" target-width="924.26" target-x="137.87" target-y="137.87"></path></clipPath></defs><path d="M 1062.13 600.00 C 1062.13 722.56 1013.44 840.11 926.78 926.78 C 840.11 1013.44 722.56 1062.13 600.00 1062.13 C 477.44 1062.13 359.89 1013.44 273.22 926.78 C 186.56 840.11 137.87 722.56 137.87 600.00 C 137.87 477.44 186.56 359.89 273.22 273.22 C 359.89 186.56 477.44 137.87 600.00 137.87 C 722.56 137.87 840.11 186.56 926.78 273.22 C 1013.44 359.89 1062.13 477.44 1062.13 600.00 Z" fill="#138d75" fill-rule="nonzero" node-id="39" stroke="none" target-height="924.26" target-width="924.26" target-x="137.87" target-y="137.87"></path><g node-id="83"><g clip-path="url(#clip-path)" group-id="1" id="sillyvg_g_0" node-id="41"><path d="M 799.51 652.94 L 803.47 907.32 L 805.99 1053.49 L 657.49 1121.00 L 402.88 1051.32 L 394.01 648.44 L 732.24 672.72 L 799.51 652.94 Z" fill="#eab9b1" fill-rule="nonzero" group-id="1" node-id="43" stroke="#370911" stroke-linecap="butt" stroke-width="14" target-height="472.56" target-width="411.97998" target-x="394.01" target-y="648.44"></path><path d="M 896.47 594.00 C 896.47 633.85 870.38 672.15 838.19 672.15 C 806.00 672.15 779.92 639.85 779.92 600.00 C 779.92 560.15 813.01 527.85 845.19 527.85 C 877.37 527.85 896.47 554.15 896.47 594.00 Z" fill="#fde9d1" fill-rule="nonzero" group-id="1" node-id="45" stroke="#370911" stroke-linecap="butt" stroke-width="14" target-height="144.30005" target-width="116.54999" target-x="779.92" target-y="527.85"></path><path d="M 421.08 600.00 C 421.08 639.85 394.99 672.15 362.81 672.15 C 330.63 672.15 303.53 633.85 303.53 594.00 C 303.53 554.15 323.62 527.85 355.81 527.85 C 388.00 527.85 421.08 560.15 421.08 600.00 Z" fill="#fde9d1" fill-rule="nonzero" group-id="1" node-id="47" stroke="#370911" stroke-linecap="butt" stroke-width="14" target-height="144.30005" target-width="117.54999" target-x="303.53" target-y="527.85"></path><path d="M 831.05 559.30 C 831.05 714.72 727.61 840.72 600.00 840.72 C 472.39 840.72 368.95 714.72 368.95 559.30 C 368.95 403.88 472.39 277.88 600.00 277.88 C 727.61 277.88 831.05 403.88 831.05 559.30 Z" fill="#f9d9d0" fill-rule="nonzero" group-id="1" node-id="49" stroke="#370911" stroke-linecap="butt" stroke-width="14" target-height="562.83997" target-width="462.09998" target-x="368.95" target-y="277.88"></path><path d="M 710.86 545.23 C 710.86 561.33 698.84 574.39 684.02 574.39 C 669.20 574.39 657.18 561.33 657.18 545.23 C 657.18 529.13 669.20 516.07 684.02 516.07 C 698.84 516.07 710.86 529.13 710.86 545.23 Z" fill="#271d1f" fill-rule="nonzero" group-id="1" node-id="51" stroke="none" target-height="58.320007" target-width="53.679993" target-x="657.18" target-y="516.07"></path><path d="M 645.92 479.51 C 645.92 479.51 652.24 466.09 688.40 472.23 C 715.73 476.87 722.12 490.61 722.12 490.61" fill="none" group-id="1" node-id="53" stroke="#231815" stroke-linecap="round" stroke-width="20" target-height="24.519989" target-width="76.20001" target-x="645.92" target-y="466.09"></path><path d="M 542.82 545.23 C 542.82 561.33 530.80 574.39 515.98 574.39 C 501.16 574.39 489.14 561.33 489.14 545.23 C 489.14 529.13 501.16 516.07 515.98 516.07 C 530.80 516.07 542.82 529.13 542.82 545.23 Z" fill="#271d1f" fill-rule="nonzero" group-id="1" node-id="55" stroke="none" target-height="58.320007" target-width="53.679993" target-x="489.14" target-y="516.07"></path><path d="M 554.08 479.51 C 554.08 479.51 547.76 466.09 511.60 472.23 C 484.27 476.87 477.88 490.61 477.88 490.61" fill="none" group-id="1" node-id="57" stroke="#231815" stroke-linecap="round" stroke-width="20" target-height="24.519989" target-width="76.20001" target-x="477.88" target-y="466.09"></path><path d="M 672.79 684.32 C 672.79 706.27 640.21 724.06 600.02 724.06 C 559.83 724.06 527.25 706.27 527.25 684.32 C 527.25 662.37 559.83 644.58 600.02 644.58 C 640.21 644.58 672.79 662.37 672.79 684.32 Z" fill="#ee8685" fill-rule="nonzero" group-id="1" node-id="59" stroke="#310304" stroke-linecap="butt" stroke-width="10" target-height="79.47998" target-width="145.53998" target-x="527.25" target-y="644.58"></path><path d="M 545.92 705.77 C 559.58 714.02 579.65 719.77 601.62 719.77 C 625.37 719.77 640.40 715.21 654.07 705.77 C 649.69 692.65 629.36 686.45 600.75 686.45 C 570.65 686.45 548.37 691.65 545.92 705.77 Z" fill="#e5415b" fill-rule="nonzero" group-id="1" node-id="61" stroke="none" target-height="33.320007" target-width="108.150024" target-x="545.92" target-y="686.45"></path><path d="M 603.90 672.72 C 636.97 672.72 652.55 671.72 666.20 666.31 C 662.05 652.62 653.89 646.22 599.98 649.13 C 548.98 646.43 538.91 652.24 533.77 664.34 C 545.38 671.47 561.93 672.72 603.90 672.72 Z" fill="#ffffff" fill-rule="nonzero" group-id="1" node-id="63" stroke="none" target-height="26.5" target-width="132.43" target-x="533.77" target-y="646.22"></path><path d="M 499.68 643.05 C 499.68 670.40 477.50 692.58 450.15 692.58 C 422.80 692.58 400.62 670.40 400.62 643.05 C 400.62 615.70 422.80 593.52 450.15 593.52 C 477.50 593.52 499.68 615.70 499.68 643.05 Z" fill="#de717e" fill-rule="nonzero" group-id="1" node-id="65" stroke="none" target-height="99.06" target-width="99.06" target-x="400.62" target-y="593.52"></path><path d="M 799.38 643.05 C 799.38 670.40 777.20 692.58 749.85 692.58 C 722.50 692.58 700.32 670.40 700.32 643.05 C 700.32 615.70 722.50 593.52 749.85 593.52 C 777.20 593.52 799.38 615.70 799.38 643.05 Z" fill="#de717e" fill-rule="nonzero" group-id="1" node-id="67" stroke="none" target-height="99.06" target-width="99.06" target-x="700.32" target-y="593.52"></path><path d="M 506.18 334.33 C 506.18 334.33 623.18 324.72 679.38 333.20 C 746.38 343.32 782.95 422.29 801.90 426.51 C 840.67 435.16 805.59 613.51 825.77 619.41 C 845.95 625.31 838.15 600.99 840.67 589.23 C 843.19 577.47 859.00 461.00 860.87 453.62 C 875.48 396.43 887.00 375.00 876.06 346.55 C 865.12 318.10 775.80 240.68 754.00 219.66 C 732.20 198.64 647.13 167.12 600.00 171.32 C 552.87 175.52 505.84 187.70 488.19 212.92 C 470.54 238.14 460.19 250.92 460.19 250.92 C 460.19 250.92 379.19 244.16 352.30 301.33 C 325.41 358.50 317.83 358.49 323.72 391.28 C 329.61 424.07 338.01 453.48 338.85 487.11 C 339.69 520.74 344.66 543.43 352.23 563.61 C 359.80 583.79 361.23 603.61 362.02 615.43 C 362.81 627.25 365.02 632.66 378.51 630.98 C 392.00 629.30 392.36 615.56 392.17 607.59 C 391.91 596.18 376.95 508.75 395.73 450.11 C 402.38 429.32 432.16 392.96 460.73 378.67 C 489.30 364.38 506.18 334.33 506.18 334.33 Z" fill="#351c14" fill-rule="nonzero" group-id="1" node-id="69" stroke="none" target-height="465.53998" target-width="569.17004" target-x="317.83" target-y="167.12"></path><path d="M 731.74 1059.00 L 731.74 1240.16 L 450.15 1247.13 L 441.21 1039.50 L 731.74 1059.00 Z" fill="#f2f2f2" fill-rule="nonzero" group-id="1" node-id="71" stroke="#360810" stroke-linecap="butt" stroke-width="10" target-height="207.63" target-width="290.53" target-x="441.21" target-y="1039.5"></path><path d="M 489.08 999.90 C 489.08 999.90 547.32 1010.76 586.81 1011.65 C 626.30 1012.54 680.91 1005.77 680.91 1005.77 L 700.32 1062.11 C 700.32 1062.11 647.26 1080.02 592.61 1079.52 C 546.09 1079.09 498.31 1062.36 482.29 1061.29 C 447.45 1059.00 489.08 999.90 489.08 999.90 Z" fill="#f2f2f2" fill-rule="nonzero" group-id="1" node-id="73" stroke="#360810" stroke-linecap="butt" stroke-width="14" target-height="80.119995" target-width="252.87" target-x="447.45" target-y="999.9"></path><path d="M 1009.44 1021.55 C 1009.44 1021.55 934.09 1125.30 855.64 1151.10 C 777.19 1176.90 648.15 1176.39 648.15 1176.39 L 674.48 872.91 C 674.48 872.91 732.28 889.43 765.83 884.78 C 799.38 880.13 828.83 872.91 828.83 872.91 C 828.83 872.91 842.25 903.91 840.70 905.91 C 839.15 907.91 934.12 983.85 966.12 994.69 C 998.12 1005.53 1009.44 1021.55 1009.44 1021.55 Z" fill="#e33733" fill-rule="nonzero" group-id="1" node-id="75" stroke="#360810" stroke-linecap="round" stroke-width="14" target-height="303.99005" target-width="361.28998" target-x="648.15" target-y="872.91"></path><path d="M 386.00 893.14 C 386.00 893.14 308.60 955.00 283.83 963.75 C 259.06 972.50 220.83 1009.17 220.83 1009.17 C 220.83 1009.17 272.45 1089.17 317.35 1103.10 C 362.25 1117.03 509.86 1152.10 520.19 1152.65 C 530.52 1153.20 533.09 1152.65 533.09 1152.65 L 520.19 872.91 C 520.19 872.91 485.09 919.91 453.09 908.01 C 421.09 896.11 386.00 893.14 386.00 893.14 Z" fill="#e33733" fill-rule="nonzero" group-id="1" node-id="77" stroke="#360810" stroke-linecap="round" stroke-width="14" target-height="280.28998" target-width="312.26" target-x="220.83" target-y="872.91"></path><path d="M 674.48 872.91 C 674.48 872.91 802.48 854.33 807.64 848.14 C 812.80 841.95 807.64 829.04 807.64 829.04 C 807.64 829.04 832.41 828.52 836.54 841.43 C 840.67 854.34 841.70 890.97 839.64 896.65 C 837.58 902.33 807.12 908.00 782.86 922.46 C 758.60 936.92 734.35 964.78 711.64 955.00 C 688.93 945.22 674.48 872.91 674.48 872.91 Z" fill="#e33733" fill-rule="nonzero" group-id="1" node-id="79" stroke="#360810" stroke-linecap="round" stroke-width="14" target-height="136.26001" target-width="167.22003" target-x="674.48" target-y="828.52"></path><path d="M 520.22 872.91 C 520.22 872.91 510.93 900.78 504.73 916.26 C 498.53 931.74 481.51 960.10 472.22 957.00 C 462.93 953.90 409.22 926.05 398.93 917.28 C 388.64 908.51 366.93 903.34 364.35 896.63 C 361.77 889.92 359.70 842.44 369.51 837.28 C 379.32 832.12 392.73 829.00 392.73 829.00 C 392.73 829.00 399.44 848.61 419.06 851.71 C 438.68 854.81 520.22 872.91 520.22 872.91 Z" fill="#e33733" fill-rule="nonzero" group-id="1" node-id="81" stroke="#360810" stroke-linecap="round" stroke-width="14" target-height="131.09998" target-width="160.51996" target-x="359.7" target-y="829"></path></g></g></svg>