<?xml version="1.0" standalone="no"?><!DOCTYPE svg PUBLIC "-//W3C//DTD SVG 1.1//EN" "http://www.w3.org/Graphics/SVG/1.1/DTD/svg11.dtd"><svg height="842" node-id="1" sillyvg="true" template-height="842" template-width="595" version="1.1" viewBox="0 0 595 842" width="595" xmlns="http://www.w3.org/2000/svg" xmlns:xlink="http://www.w3.org/1999/xlink"><defs node-id="81"><clipPath id="SVGID_2_" node-id="18"><path d="M 251.70 275.60 C 251.70 332.87 208.59 379.30 155.40 379.30 C 102.21 379.30 59.10 332.87 59.10 275.60 C 59.10 218.33 102.21 171.90 155.40 171.90 C 208.59 171.90 251.70 218.33 251.70 275.60 Z" fill="#000000" fill-rule="nonzero" node-id="84" stroke="none" target-height="207.4" target-width="192.6" target-x="59.1" target-y="171.9"></path></clipPath><clipPath id="SVGID_4_" node-id="25"><path d="M 443.50 207.40 C 443.50 264.67 400.39 311.10 347.20 311.10 C 294.01 311.10 250.90 264.67 250.90 207.40 C 250.90 150.13 294.01 103.70 347.20 103.70 C 400.39 103.70 443.50 150.13 443.50 207.40 Z" fill="#000000" fill-rule="nonzero" node-id="88" stroke="none" target-height="207.40001" target-width="192.6" target-x="250.9" target-y="103.7"></path></clipPath><clipPath id="SVGID_6_" node-id="32"><path d="M 292.90 204.20 C 292.90 241.37 266.98 271.50 235.00 271.50 C 203.02 271.50 177.10 241.37 177.10 204.20 C 177.10 167.03 203.02 136.90 235.00 136.90 C 266.98 136.90 292.90 167.03 292.90 204.20 Z" fill="#000000" fill-rule="nonzero" node-id="92" stroke="none" target-height="134.6" target-width="115.79999" target-x="177.1" target-y="136.9"></path></clipPath></defs><g node-id="325"><path d="M 459.50 506.20 C 482.10 490.20 490.60 467.90 488.20 452.30 C 484.80 429.80 494.30 397.50 491.80 377.50 C 490.50 366.90 485.60 369.30 470.80 360.30 L 470.90 360.00 C 470.70 360.00 470.50 360.00 470.30 360.00 C 470.10 359.90 469.90 359.80 469.80 359.70 L 469.70 360.00 C 452.00 359.20 443.60 351.20 435.70 358.90 C 430.30 364.20 425.70 371.50 421.10 379.30 C 392.10 357.90 342.10 342.10 312.20 341.60 C 272.10 342.30 241.30 352.60 218.90 388.40 C 190.50 392.60 171.20 410.00 159.40 423.80 C 144.30 441.70 125.70 465.20 117.50 483.80 C 113.20 493.70 124.60 497.30 132.90 511.70 L 132.70 511.90 C 132.90 512.00 133.10 512.10 133.30 512.20 C 133.40 512.40 133.50 512.60 133.60 512.70 L 133.80 512.50 C 148.90 521.00 148.60 526.10 159.60 522.80 C 163.50 521.60 141.70 561.30 141.70 593.30 C 141.70 642.30 170.20 682.00 205.40 682.00 C 211.70 682.00 217.80 680.70 223.60 678.30 C 248.40 693.30 279.60 702.90 308.70 703.50 C 310.10 703.50 311.30 703.50 312.00 703.50 C 312.80 703.50 313.90 703.50 315.30 703.50 C 346.30 702.90 379.70 692.10 405.10 675.40 C 414.30 681.00 424.50 684.20 435.40 684.20 C 474.60 684.20 506.30 643.20 506.30 592.50 C 506.60 552.80 487.00 518.90 459.50 506.20 Z" fill="#ffffff" fill-rule="nonzero" group-id="1" node-id="99" stroke="#040000" stroke-linecap="butt" stroke-width="3" target-height="361.9" target-width="393.40002" target-x="113.2" target-y="341.6"></path><path d="M 223.60 479.70 C 223.60 479.70 210.00 500.70 164.20 527.60" fill="none" group-id="1" node-id="101" stroke="#040000" stroke-linecap="butt" stroke-width="3" target-height="47.899963" target-width="59.40001" target-x="164.2" target-y="479.7"></path><path d="M 139.20 607.00 C 157.60 706.20 223.60 678.50 223.70 678.50 C 244.50 658.40 237.80 636.00 237.80 606.50 C 237.80 577.00 178.00 552.30 157.30 532.20 C 157.20 532.10 131.80 566.80 139.20 607.00 Z" fill="#231815" fill-rule="nonzero" group-id="1" node-id="103" stroke="#040000" stroke-linecap="butt" stroke-width="3" target-height="174.10004" target-width="112.7" target-x="131.8" target-y="532.1"></path><path d="M 505.60 608.20 C 487.20 707.40 424.70 684.00 412.70 678.30 C 400.70 672.60 405.50 635.90 405.50 606.40 C 405.50 576.90 465.30 552.20 486.00 532.10 C 490.20 527.50 513.00 568.00 505.60 608.20 Z" fill="#a7a6a7" fill-rule="nonzero" group-id="1" node-id="105" stroke="#040000" stroke-linecap="butt" stroke-width="3" target-height="179.90002" target-width="112.29999" target-x="400.7" target-y="527.5"></path></g><g node-id="326"><path d="M 395.40 248.40 C 385.50 229.20 373.80 214.40 360.90 203.50 C 361.50 190.40 360.70 164.60 348.60 140.20 C 340.60 124.00 329.30 123.60 329.30 123.60 C 329.30 123.60 318.40 120.60 306.00 133.70 C 292.10 148.40 284.00 165.70 279.50 178.80 C 263.80 179.90 247.30 183.60 230.50 189.40 L 230.50 189.40 C 230.40 189.40 230.40 189.40 230.30 189.50 C 229.90 189.70 229.40 189.80 229.00 190.00 C 228.60 190.20 228.10 190.30 227.70 190.50 C 227.60 190.50 227.60 190.60 227.50 190.60 L 227.50 190.60 C 210.80 196.70 196.00 204.10 183.60 213.00 C 170.40 206.20 151.50 198.40 130.40 196.10 C 111.60 194.10 105.70 203.00 105.70 203.00 C 105.70 203.00 97.70 210.20 103.90 227.10 C 113.20 252.50 132.00 272.00 142.20 281.20 C 140.80 297.20 143.40 315.20 150.40 335.50 C 156.90 364.20 165.00 388.20 197.00 398.30 C 227.50 408.00 280.20 406.00 315.30 394.50 L 315.30 394.50 C 315.40 394.50 315.40 394.50 315.50 394.40 C 315.90 394.20 316.40 394.10 316.80 393.90 C 317.20 393.70 317.70 393.60 318.10 393.40 C 318.20 393.40 318.20 393.30 318.30 393.30 L 318.30 393.30 C 352.70 380.20 392.90 349.20 408.10 323.30 C 424.10 296.10 412.10 273.50 395.40 248.40 Z" fill="#ffffff" fill-rule="nonzero" group-id="2" node-id="110" stroke="#040000" stroke-linecap="butt" stroke-width="3" target-height="287.4" target-width="326.40002" target-x="97.7" target-y="120.6"></path><path d="M 286.70 323.70 C 281.80 325.50 273.40 329.60 277.00 331.30 L 283.00 332.30 L 289.10 334.40 C 289.80 334.60 290.60 334.60 291.30 334.40 C 292.00 334.10 292.60 333.60 292.90 333.00 L 295.80 327.60 L 299.50 323.20 C 300.90 319.90 291.70 322.00 286.70 323.70 Z" fill="#51160e" fill-rule="nonzero" group-id="2" node-id="112" stroke="#040000" stroke-linecap="butt" stroke-width="2" target-height="14.700012" target-width="27.5" target-x="273.4" target-y="319.9"></path><g node-id="331"><g node-id="352"><g clip-path="url(#SVGID_2_)" group-id="2,7,28" node-id="120"><path d="M 395.40 248.40 C 385.50 229.20 373.80 214.40 360.90 203.50 C 361.50 190.40 360.70 164.60 348.60 140.20 C 340.60 124.00 329.30 123.60 329.30 123.60 C 329.30 123.60 318.40 120.60 306.00 133.70 C 292.10 148.40 284.00 165.70 279.50 178.80 C 263.80 179.90 247.30 183.60 230.50 189.40 L 230.50 189.40 C 230.40 189.40 230.40 189.40 230.30 189.50 C 229.90 189.70 229.40 189.80 229.00 190.00 C 228.60 190.20 228.10 190.30 227.70 190.50 C 227.60 190.50 227.60 190.60 227.50 190.60 L 227.50 190.60 C 210.80 196.70 196.00 204.10 183.60 213.00 C 170.40 206.20 151.50 198.40 130.40 196.10 C 111.60 194.10 105.70 203.00 105.70 203.00 C 105.70 203.00 97.70 210.20 103.90 227.10 C 113.20 252.50 132.00 272.00 142.20 281.20 C 140.80 297.20 143.40 315.20 150.40 335.50 C 156.90 364.20 165.00 388.20 197.00 398.30 C 227.50 408.00 280.20 406.00 315.30 394.50 L 315.30 394.50 C 315.40 394.50 315.40 394.50 315.50 394.40 C 315.90 394.20 316.40 394.10 316.80 393.90 C 317.20 393.70 317.70 393.60 318.10 393.40 C 318.20 393.40 318.20 393.30 318.30 393.30 L 318.30 393.30 C 352.70 380.20 392.90 349.20 408.10 323.30 C 424.10 296.10 412.10 273.50 395.40 248.40 Z" fill="#a7a6a7" fill-rule="nonzero" group-id="2,7,28,33,42" node-id="122" stroke="#040000" stroke-linecap="butt" stroke-width="3" target-height="287.4" target-width="326.40002" target-x="97.7" target-y="120.6"></path></g></g><g node-id="353"><g clip-path="url(#SVGID_4_)" group-id="2,7,29" node-id="131"><path d="M 150.50 335.00 C 143.50 314.80 140.90 296.70 142.30 280.70 C 132.10 271.50 113.40 252.00 104.00 226.60 C 97.80 209.80 105.80 202.50 105.80 202.50 C 105.80 202.50 111.60 193.60 130.50 195.60 C 151.70 197.90 170.60 205.60 183.70 212.50 C 196.10 203.70 210.90 196.30 227.60 190.10 L 227.60 190.10 C 227.70 190.10 227.70 190.00 227.80 190.00 C 228.20 189.80 228.70 189.70 229.10 189.50 C 229.50 189.30 230.00 189.20 230.40 189.00 C 230.50 189.00 230.50 189.00 230.60 188.90 L 230.60 188.90 C 247.40 183.10 263.90 179.50 279.60 178.30 C 284.20 165.20 292.30 147.90 306.10 133.20 C 318.40 120.10 329.40 123.10 329.40 123.10 C 329.40 123.10 340.70 123.50 348.70 139.70 C 360.80 164.10 361.60 190.00 361.00 203.00 C 374.00 213.90 385.60 228.70 395.50 247.90 C 412.20 273.00 424.10 295.60 408.20 322.70 C 393.00 348.60 352.80 379.60 318.40 392.70 L 318.40 392.70 C 318.30 392.70 318.30 392.80 318.20 392.80 C 317.80 393.00 317.30 393.10 316.90 393.30 C 316.50 393.50 316.00 393.60 315.60 393.80 C 315.50 393.80 315.50 393.80 315.40 393.90 L 315.40 393.90 C 280.30 405.40 227.60 407.40 197.10 397.70 C 165.10 387.70 156.90 363.80 150.50 335.00 Z" fill="#a7a6a7" fill-rule="nonzero" group-id="2,7,29,34,43" node-id="133" stroke="#040000" stroke-linecap="butt" stroke-width="3" target-height="287.3" target-width="326.3" target-x="97.8" target-y="120.1"></path></g></g><g clip-path="url(#SVGID_6_)" group-id="2,7,30" node-id="142"><path d="M 395.40 248.40 C 385.50 229.20 373.80 214.40 360.90 203.50 C 361.50 190.40 360.70 164.60 348.60 140.20 C 340.60 124.00 329.30 123.60 329.30 123.60 C 329.30 123.60 318.40 120.60 306.00 133.70 C 292.10 148.40 284.00 165.70 279.50 178.80 C 263.80 179.90 247.30 183.60 230.50 189.40 L 230.50 189.40 C 230.40 189.40 230.40 189.40 230.30 189.50 C 229.90 189.70 229.40 189.80 229.00 190.00 C 228.60 190.20 228.10 190.30 227.70 190.50 C 227.60 190.50 227.60 190.60 227.50 190.60 L 227.50 190.60 C 210.80 196.70 196.00 204.10 183.60 213.00 C 170.40 206.20 151.50 198.40 130.40 196.10 C 111.60 194.10 105.70 203.00 105.70 203.00 C 105.70 203.00 97.70 210.20 103.90 227.10 C 113.20 252.50 132.00 272.00 142.20 281.20 C 140.80 297.20 143.40 315.20 150.40 335.50 C 156.90 364.20 165.00 388.20 197.00 398.30 C 227.50 408.00 280.20 406.00 315.30 394.50 L 315.30 394.50 C 315.40 394.50 315.40 394.50 315.50 394.40 C 315.90 394.20 316.40 394.10 316.80 393.90 C 317.20 393.70 317.70 393.60 318.10 393.40 C 318.20 393.40 318.20 393.30 318.30 393.30 L 318.30 393.30 C 352.70 380.20 392.90 349.20 408.10 323.30 C 424.10 296.10 412.10 273.50 395.40 248.40 Z" fill="#a7a6a7" fill-rule="nonzero" group-id="2,7,30,35,44" node-id="144" stroke="#040000" stroke-linecap="butt" stroke-width="3" target-height="287.4" target-width="326.40002" target-x="97.7" target-y="120.6"></path></g></g><path d="M 294.60 180.00 C 297.80 170.20 303.60 157.30 313.30 146.30 C 321.90 136.50 329.50 138.60 329.50 138.60 C 329.50 138.60 337.30 138.80 342.70 150.70 C 350.10 166.90 351.10 184.10 350.80 194.40 C 335.00 185.80 315.60 180.80 294.60 180.00 Z" fill="#eba4a2" fill-rule="nonzero" group-id="2" node-id="150" stroke="#d14a17" stroke-linecap="butt" stroke-width="1" target-height="57.899994" target-width="56.5" target-x="294.6" target-y="136.5"></path><path d="M 175.80 222.10 C 166.10 216.90 152.20 210.90 136.80 208.80 C 123.20 206.90 119.20 213.10 119.20 213.10 C 119.20 213.10 113.60 218.10 118.50 230.20 C 125.20 246.70 137.30 259.90 145.20 267.40 C 150.50 251.20 161.00 235.60 175.80 222.10 Z" fill="#eba4a2" fill-rule="nonzero" group-id="2" node-id="152" stroke="#d14a17" stroke-linecap="butt" stroke-width="1" target-height="60.5" target-width="62.200005" target-x="113.6" target-y="206.9"></path><path d="M 268.80 350.20 C 268.80 350.20 280.10 356.80 290.90 343.60 C 292.60 341.60 294.90 340.50 298.30 341.00 C 314.80 343.50 319.40 332.20 319.40 332.20" fill="none" group-id="2,8" node-id="156" stroke="#040000" stroke-linecap="butt" stroke-width="3" target-height="24.599976" target-width="50.600006" target-x="268.8" target-y="332.2"></path><path d="M 284.50 349.80 C 303.60 371.00 311.60 368.00 309.20 340.80" fill="#eba4a2" fill-rule="nonzero" group-id="2,8" node-id="158" stroke="#040000" stroke-linecap="butt" stroke-width="3" target-height="30.200012" target-width="27.100006" target-x="284.5" target-y="340.8"></path><path d="M 239.10 355.35 L 239.36 357.17 L 239.02 359.10 L 237.98 361.25 L 236.52 363.19 L 234.51 365.18 L 231.87 367.20 L 229.03 368.94 L 225.77 370.53 L 222.06 371.95 L 218.24 373.03 L 214.68 373.70 L 211.36 374.00 L 208.03 373.95 L 205.24 373.56 L 202.90 372.87 L 200.79 371.77 L 199.36 370.42 L 198.48 368.81 L 198.22 366.99 L 198.57 365.05 L 199.60 362.91 L 201.06 360.96 L 203.07 358.98 L 205.71 356.95 L 208.55 355.21 L 211.81 353.63 L 215.52 352.21 L 219.35 351.13 L 222.90 350.46 L 226.22 350.16 L 229.55 350.20 L 232.34 350.60 L 234.68 351.28 L 236.79 352.38 L 238.22 353.73 L 239.10 355.35 Z" fill="#eba4a2" fill-rule="nonzero" group-id="2,9" node-id="163" stroke="none" target-height="23.839996" target-width="41.14" target-x="198.22" target-y="350.16"></path><path d="M 383.21 302.47 L 383.47 304.29 L 383.13 306.22 L 382.09 308.37 L 380.63 310.31 L 378.62 312.30 L 375.98 314.33 L 373.14 316.06 L 369.88 317.65 L 366.17 319.07 L 362.35 320.15 L 358.79 320.82 L 355.47 321.12 L 352.14 321.07 L 349.35 320.68 L 347.01 320.00 L 344.90 318.89 L 343.47 317.55 L 342.59 315.93 L 342.33 314.11 L 342.68 312.17 L 343.71 310.03 L 345.17 308.08 L 347.18 306.10 L 349.82 304.07 L 352.66 302.34 L 355.92 300.75 L 359.63 299.33 L 363.46 298.25 L 367.01 297.58 L 370.33 297.28 L 373.66 297.32 L 376.45 297.72 L 378.79 298.40 L 380.90 299.51 L 382.33 300.85 L 383.21 302.47 Z" fill="#eba4a2" fill-rule="nonzero" group-id="2,10" node-id="168" stroke="none" target-height="23.839996" target-width="41.140015" target-x="342.33" target-y="297.28"></path><path d="M 331.36 255.64 L 334.95 256.25 L 338.28 257.23 L 341.38 258.60 L 344.30 260.33 L 346.89 262.34 L 349.20 264.64 L 351.19 267.21 L 352.79 269.95 L 354.03 272.90 L 354.85 275.99 L 355.22 279.19 L 355.12 282.53 L 354.53 285.81 L 353.52 288.87 L 352.09 291.72 L 350.27 294.36 L 348.14 296.72 L 345.67 298.82 L 342.94 300.60 L 339.99 302.04 L 336.79 303.14 L 333.47 303.84 L 330.00 304.13 L 326.37 303.99 L 322.78 303.38 L 319.45 302.39 L 316.34 301.03 L 313.43 299.30 L 310.83 297.29 L 308.53 294.99 L 306.54 292.42 L 304.93 289.67 L 303.70 286.72 L 302.88 283.64 L 302.51 280.44 L 302.60 277.10 L 303.19 273.81 L 304.21 270.76 L 305.64 267.91 L 307.45 265.27 L 309.59 262.91 L 312.06 260.81 L 314.78 259.03 L 317.73 257.59 L 320.94 256.49 L 324.26 255.79 L 327.72 255.50 L 331.36 255.64 Z" fill="#ecc32a" fill-rule="nonzero" group-id="2,11,31,36,45" node-id="179" stroke="#040000" stroke-linecap="butt" stroke-width="2.999963" target-height="48.630005" target-width="52.70999" target-x="302.51" target-y="255.5"></path><path d="M 330.73 261.49 L 334.34 262.18 L 337.58 263.36 L 340.51 265.03 L 343.13 267.15 L 345.27 269.57 L 346.97 272.33 L 348.15 275.33 L 348.74 278.48 L 348.73 281.85 L 348.05 285.14 L 346.83 288.11 L 345.06 290.80 L 342.84 293.15 L 340.25 295.09 L 337.25 296.63 L 334.04 297.67 L 330.62 298.16 L 326.95 298.10 L 323.34 297.41 L 320.10 296.23 L 317.17 294.56 L 314.55 292.44 L 312.41 290.02 L 310.71 287.26 L 309.53 284.26 L 308.94 281.11 L 308.94 277.74 L 309.62 274.45 L 310.84 271.48 L 312.61 268.78 L 314.84 266.43 L 317.43 264.50 L 320.43 262.95 L 323.64 261.92 L 327.05 261.43 L 330.73 261.49 Z" fill="#040000" fill-rule="nonzero" group-id="2,11,31,36,46" node-id="184" stroke="none" target-height="36.73001" target-width="39.799988" target-x="308.94" target-y="261.43"></path><path d="M 343.56 265.52 L 343.51 266.93 L 343.09 268.20 L 342.29 269.38 L 341.21 270.32 L 339.91 270.99 L 338.33 271.39 L 336.70 271.38 L 335.28 271.04 L 334.01 270.38 L 332.95 269.43 L 332.24 268.30 L 331.85 266.94 L 331.90 265.52 L 332.32 264.25 L 333.12 263.08 L 334.20 262.13 L 335.50 261.46 L 337.08 261.07 L 338.71 261.07 L 340.14 261.41 L 341.41 262.08 L 342.47 263.02 L 343.18 264.16 L 343.56 265.52 Z" fill="#ffffff" fill-rule="nonzero" group-id="2,11,31,37" node-id="190" stroke="#ffffff" stroke-linecap="butt" stroke-width="1.0000379" target-height="10.320007" target-width="11.709991" target-x="331.85" target-y="261.07"></path><path d="M 317.72 290.84 L 319.14 291.13 L 320.25 291.85 L 321.00 292.92 L 321.26 294.21 L 320.95 295.49 L 320.16 296.52 L 319.02 297.20 L 317.59 297.44 L 316.18 297.14 L 315.07 296.42 L 314.32 295.36 L 314.06 294.07 L 314.37 292.78 L 315.16 291.75 L 316.30 291.08 L 317.72 290.84 Z" fill="#ffffff" fill-rule="nonzero" group-id="2,11,31,38" node-id="195" stroke="#ffffff" stroke-linecap="butt" stroke-width="0.99999917" target-height="6.600006" target-width="7.200012" target-x="314.06" target-y="290.84"></path><path d="M 227.23 292.52 L 230.81 293.12 L 234.15 294.11 L 237.25 295.47 L 240.17 297.21 L 242.76 299.22 L 245.06 301.52 L 247.05 304.08 L 248.66 306.83 L 249.90 309.78 L 250.72 312.87 L 251.08 316.06 L 250.99 319.40 L 250.40 322.69 L 249.39 325.74 L 247.95 328.60 L 246.14 331.23 L 244.01 333.60 L 241.53 335.70 L 238.81 337.48 L 235.86 338.92 L 232.65 340.02 L 229.33 340.72 L 225.87 341.00 L 222.23 340.86 L 218.64 340.26 L 215.31 339.27 L 212.21 337.91 L 209.29 336.17 L 206.70 334.16 L 204.40 331.87 L 202.40 329.30 L 200.80 326.55 L 199.56 323.60 L 198.74 320.52 L 198.38 317.32 L 198.47 313.98 L 199.06 310.69 L 200.07 307.64 L 201.50 304.78 L 203.32 302.15 L 205.45 299.79 L 207.93 297.68 L 210.65 295.90 L 213.60 294.47 L 216.81 293.36 L 220.13 292.66 L 223.59 292.38 L 227.23 292.52 Z" fill="#ecc32a" fill-rule="nonzero" group-id="2,11,32,39,47" node-id="205" stroke="#040000" stroke-linecap="butt" stroke-width="2.999963" target-height="48.619995" target-width="52.699997" target-x="198.38" target-y="292.38"></path><path d="M 226.60 298.37 L 230.21 299.06 L 233.45 300.24 L 236.38 301.90 L 239.00 304.03 L 241.15 306.45 L 242.84 309.21 L 244.03 312.21 L 244.62 315.36 L 244.61 318.72 L 243.93 322.02 L 242.71 324.99 L 240.94 327.68 L 238.71 330.03 L 236.12 331.97 L 233.12 333.51 L 229.92 334.54 L 226.50 335.04 L 222.83 334.97 L 219.22 334.29 L 215.97 333.11 L 213.04 331.44 L 210.42 329.32 L 208.28 326.89 L 206.58 324.14 L 205.40 321.14 L 204.81 317.98 L 204.82 314.62 L 205.50 311.32 L 206.72 308.36 L 208.49 305.66 L 210.71 303.31 L 213.30 301.37 L 216.30 299.83 L 219.51 298.80 L 222.93 298.31 L 226.60 298.37 Z" fill="#040000" fill-rule="nonzero" group-id="2,11,32,39,48" node-id="210" stroke="none" target-height="36.73001" target-width="39.809998" target-x="204.81" target-y="298.31"></path><path d="M 240.16 302.91 L 240.10 304.32 L 239.68 305.59 L 238.88 306.77 L 237.81 307.71 L 236.50 308.38 L 234.92 308.78 L 233.30 308.77 L 231.87 308.43 L 230.60 307.77 L 229.54 306.82 L 228.83 305.69 L 228.44 304.32 L 228.49 302.91 L 228.91 301.64 L 229.72 300.47 L 230.79 299.52 L 232.09 298.85 L 233.67 298.45 L 235.30 298.46 L 236.73 298.80 L 238.00 299.46 L 239.06 300.41 L 239.77 301.55 L 240.16 302.91 Z" fill="#ffffff" fill-rule="nonzero" group-id="2,11,32,40" node-id="216" stroke="#ffffff" stroke-linecap="butt" stroke-width="1.0000379" target-height="10.329987" target-width="11.720001" target-x="228.44" target-y="298.45"></path><path d="M 216.88 330.29 L 218.29 330.58 L 219.40 331.30 L 220.15 332.36 L 220.41 333.66 L 220.10 334.94 L 219.31 335.97 L 218.17 336.65 L 216.74 336.88 L 215.33 336.59 L 214.22 335.87 L 213.47 334.81 L 213.21 333.51 L 213.52 332.23 L 214.31 331.20 L 215.45 330.52 L 216.88 330.29 Z" fill="#ffffff" fill-rule="nonzero" group-id="2,11,32,41" node-id="221" stroke="#ffffff" stroke-linecap="butt" stroke-width="0.999999" target-height="6.5899963" target-width="7.199997" target-x="213.21" target-y="330.29"></path></g><g node-id="327"><path d="M 294.20 648.80 C 292.70 641.10 284.90 636.00 276.80 637.40 C 270.00 638.60 265.20 643.90 264.60 650.10 C 261.50 648.20 258.20 646.70 254.70 645.50 C 255.90 643.00 256.30 640.10 255.80 637.10 C 254.30 629.40 246.50 624.30 238.40 625.70 C 230.30 627.10 224.90 634.50 226.40 642.20 C 226.60 643.00 226.80 643.80 227.10 644.50 C 224.60 645.10 222.20 646.00 219.90 646.90 C 218.30 639.40 210.60 634.40 202.60 635.80 C 194.50 637.20 189.10 644.60 190.60 652.30 C 191.60 657.40 195.40 661.30 200.10 663.00 C 193.90 672.10 191.10 683.40 193.40 694.90 C 198.10 718.80 222.40 734.60 247.70 730.20 C 273.00 725.80 289.80 702.80 285.10 679.00 C 284.10 674.10 282.40 669.50 279.90 665.40 C 280.70 665.40 281.40 665.30 282.20 665.20 C 290.40 663.80 295.70 656.50 294.20 648.80 Z" fill="#ffffff" fill-rule="nonzero" group-id="3" node-id="229" stroke="#040000" stroke-linecap="butt" stroke-width="3" target-height="110.29999" target-width="106.600006" target-x="189.1" target-y="624.3"></path><g node-id="336"><path d="M 240.39 664.88 L 244.07 665.15 L 247.53 665.85 L 250.80 666.96 L 253.91 668.46 L 256.73 670.29 L 259.28 672.45 L 261.53 674.91 L 263.42 677.60 L 264.95 680.54 L 266.08 683.65 L 266.75 686.93 L 266.98 690.40 L 266.69 693.87 L 265.96 697.14 L 264.79 700.23 L 263.21 703.15 L 261.27 705.81 L 258.98 708.23 L 256.39 710.34 L 253.55 712.12 L 250.42 713.58 L 247.13 714.63 L 243.65 715.27 L 239.97 715.48 L 236.28 715.21 L 232.82 714.51 L 229.55 713.41 L 226.44 711.90 L 223.63 710.07 L 221.08 707.91 L 218.82 705.45 L 216.94 702.76 L 215.40 699.82 L 214.28 696.71 L 213.60 693.43 L 213.38 689.96 L 213.66 686.49 L 214.39 683.23 L 215.57 680.13 L 217.15 677.21 L 219.08 674.56 L 221.38 672.13 L 223.96 670.02 L 226.81 668.24 L 229.94 666.78 L 233.23 665.73 L 236.70 665.09 L 240.39 664.88 Z" fill="#eba4a2" fill-rule="nonzero" group-id="3,12" node-id="233" stroke="none" target-height="50.599976" target-width="53.600006" target-x="213.38" target-y="664.88"></path></g><g node-id="337"><path d="M 205.62 642.94 L 208.03 643.25 L 210.16 644.11 L 211.98 645.45 L 213.38 647.16 L 214.28 649.18 L 214.60 651.46 L 214.27 653.73 L 213.36 655.74 L 211.95 657.46 L 210.12 658.79 L 208.00 659.63 L 205.58 659.94 L 203.17 659.62 L 201.04 658.77 L 199.22 657.43 L 197.82 655.71 L 196.92 653.69 L 196.60 651.42 L 196.93 649.15 L 197.84 647.13 L 199.24 645.42 L 201.07 644.09 L 203.20 643.24 L 205.62 642.94 Z" fill="#eba4a2" fill-rule="nonzero" group-id="3,13" node-id="238" stroke="none" target-height="17" target-width="18" target-x="196.6" target-y="642.94"></path></g><g node-id="338"><path d="M 240.87 632.31 L 243.29 632.63 L 245.41 633.48 L 247.24 634.82 L 248.63 636.54 L 249.53 638.56 L 249.85 640.83 L 249.52 643.10 L 248.62 645.12 L 247.21 646.83 L 245.38 648.16 L 243.25 649.01 L 240.83 649.31 L 238.42 649.00 L 236.29 648.14 L 234.47 646.80 L 233.07 645.09 L 232.17 643.07 L 231.85 640.79 L 232.18 638.52 L 233.09 636.50 L 234.50 634.79 L 236.33 633.46 L 238.46 632.62 L 240.87 632.31 Z" fill="#eba4a2" fill-rule="nonzero" group-id="3,14" node-id="243" stroke="none" target-height="17" target-width="18" target-x="231.85" target-y="632.31"></path></g><path d="M 277.73 644.45 L 280.14 644.76 L 282.27 645.62 L 284.09 646.95 L 285.49 648.67 L 286.39 650.69 L 286.71 652.97 L 286.38 655.24 L 285.47 657.25 L 284.07 658.96 L 282.24 660.30 L 280.11 661.14 L 277.69 661.45 L 275.28 661.13 L 273.15 660.28 L 271.33 658.94 L 269.93 657.22 L 269.03 655.20 L 268.71 652.93 L 269.04 650.65 L 269.95 648.64 L 271.35 646.93 L 273.18 645.60 L 275.31 644.75 L 277.73 644.45 Z" fill="#eba4a2" fill-rule="nonzero" group-id="3,15" node-id="248" stroke="none" target-height="17" target-width="18" target-x="268.71" target-y="644.45"></path></g><g node-id="328"><path d="M 472.40 658.30 C 473.80 650.70 468.10 643.70 459.80 642.60 C 452.90 641.70 446.30 645.20 443.50 650.90 C 441.20 648.20 438.60 645.80 435.70 643.70 C 437.80 641.70 439.20 639.10 439.80 636.20 C 441.20 628.60 435.50 621.60 427.20 620.50 C 418.90 619.40 411.10 624.70 409.70 632.30 C 409.60 633.10 409.50 633.90 409.50 634.70 C 406.90 634.60 404.30 634.60 401.70 634.90 C 402.90 627.40 397.30 620.50 389.10 619.50 C 380.80 618.40 373.00 623.70 371.60 631.30 C 370.70 636.30 372.90 641.10 376.90 644.10 C 367.60 650.70 360.90 660.40 358.90 671.80 C 354.70 695.40 372.30 717.20 398.20 720.60 C 424.10 724.00 448.50 707.50 452.70 683.90 C 453.60 679.10 453.50 674.30 452.60 669.70 C 453.30 669.90 454.10 670.10 454.90 670.20 C 463.30 671.20 471.10 665.90 472.40 658.30 Z" fill="#ffffff" fill-rule="nonzero" group-id="4" node-id="254" stroke="#040000" stroke-linecap="butt" stroke-width="3" target-height="105.599976" target-width="119.099976" target-x="354.7" target-y="618.4"></path><g node-id="340"><path d="M 432.54 677.77 L 432.66 681.18 L 432.30 684.45 L 431.47 687.60 L 430.21 690.62 L 428.57 693.44 L 426.52 696.08 L 424.16 698.45 L 421.49 700.52 L 418.48 702.32 L 415.28 703.74 L 411.84 704.78 L 408.14 705.43 L 404.37 705.61 L 400.79 705.35 L 397.36 704.66 L 394.03 703.56 L 390.97 702.12 L 388.15 700.33 L 385.58 698.21 L 383.36 695.82 L 381.47 693.14 L 379.97 690.24 L 378.90 687.13 L 378.27 683.79 L 378.15 680.38 L 378.51 677.11 L 379.34 673.95 L 380.60 670.93 L 382.24 668.12 L 384.29 665.48 L 386.65 663.11 L 389.32 661.04 L 392.33 659.24 L 395.53 657.82 L 398.97 656.78 L 402.67 656.13 L 406.43 655.95 L 410.02 656.21 L 413.45 656.90 L 416.78 657.99 L 419.84 659.44 L 422.66 661.23 L 425.23 663.35 L 427.45 665.74 L 429.34 668.42 L 430.84 671.32 L 431.91 674.42 L 432.54 677.77 Z" fill="#eba4a2" fill-rule="nonzero" group-id="4,16" node-id="258" stroke="none" target-height="49.659973" target-width="54.51001" target-x="378.15" target-y="655.95"></path></g><g node-id="341"><path d="M 395.40 633.74 L 395.30 635.97 L 394.59 638.03 L 393.34 639.84 L 391.62 641.34 L 389.55 642.39 L 387.12 642.95 L 384.63 642.91 L 382.38 642.31 L 380.38 641.20 L 378.79 639.69 L 377.66 637.83 L 377.10 635.66 L 377.20 633.42 L 377.92 631.36 L 379.16 629.55 L 380.89 628.05 L 382.96 627.00 L 385.39 626.44 L 387.88 626.49 L 390.12 627.08 L 392.12 628.19 L 393.72 629.70 L 394.84 631.57 L 395.40 633.74 Z" fill="#eba4a2" fill-rule="nonzero" group-id="4,17" node-id="263" stroke="none" target-height="16.51001" target-width="18.299988" target-x="377.1" target-y="626.44"></path></g><g node-id="342"><path d="M 433.10 634.25 L 433.00 636.48 L 432.29 638.54 L 431.04 640.35 L 429.32 641.85 L 427.24 642.90 L 424.82 643.46 L 422.33 643.42 L 420.08 642.82 L 418.08 641.71 L 416.49 640.20 L 415.36 638.34 L 414.80 636.17 L 414.90 633.93 L 415.61 631.87 L 416.86 630.06 L 418.59 628.56 L 420.66 627.51 L 423.09 626.95 L 425.57 627.00 L 427.82 627.59 L 429.82 628.70 L 431.41 630.21 L 432.54 632.08 L 433.10 634.25 Z" fill="#eba4a2" fill-rule="nonzero" group-id="4,18" node-id="268" stroke="none" target-height="16.51001" target-width="18.300018" target-x="414.8" target-y="626.95"></path></g><path d="M 464.10 656.35 L 464.00 658.58 L 463.29 660.64 L 462.04 662.45 L 460.32 663.95 L 458.24 665.00 L 455.82 665.56 L 453.33 665.52 L 451.08 664.92 L 449.08 663.81 L 447.49 662.30 L 446.36 660.44 L 445.80 658.27 L 445.90 656.03 L 446.61 653.97 L 447.86 652.16 L 449.58 650.66 L 451.66 649.61 L 454.08 649.05 L 456.57 649.09 L 458.82 649.69 L 460.82 650.80 L 462.41 652.31 L 463.54 654.18 L 464.10 656.35 Z" fill="#eba4a2" fill-rule="nonzero" group-id="4,19" node-id="273" stroke="none" target-height="16.51001" target-width="18.300018" target-x="445.8" target-y="649.05"></path></g><g node-id="329"><path d="M 524.70 305.20 C 523.20 297.50 515.40 292.40 507.30 293.80 C 500.50 295.00 495.70 300.30 495.10 306.50 C 492.00 304.60 488.70 303.10 485.20 301.90 C 486.40 299.40 486.80 296.50 486.30 293.50 C 484.80 285.80 477.00 280.70 468.90 282.10 C 460.80 283.50 455.40 290.90 456.90 298.60 C 457.10 299.40 457.30 300.20 457.60 300.90 C 455.10 301.50 452.70 302.40 450.40 303.30 C 448.80 295.80 441.10 290.80 433.10 292.20 C 425.00 293.60 419.60 301.00 421.10 308.70 C 422.10 313.80 425.90 317.70 430.60 319.40 C 424.40 328.50 421.60 339.80 423.90 351.30 C 428.60 375.20 452.90 391.00 478.20 386.60 C 503.50 382.20 520.30 359.20 515.60 335.40 C 514.60 330.50 512.90 325.90 510.40 321.80 C 511.20 321.80 511.90 321.70 512.70 321.60 C 520.80 320.30 526.20 312.90 524.70 305.20 Z" fill="#ffffff" fill-rule="nonzero" group-id="5" node-id="279" stroke="#040000" stroke-linecap="butt" stroke-width="3" target-height="110.29999" target-width="106.600006" target-x="419.6" target-y="280.7"></path><g node-id="344"><path d="M 470.81 321.24 L 474.50 321.51 L 477.96 322.21 L 481.23 323.32 L 484.34 324.82 L 487.15 326.65 L 489.70 328.81 L 491.96 331.27 L 493.84 333.96 L 495.38 336.90 L 496.50 340.01 L 497.18 343.29 L 497.40 346.76 L 497.12 350.23 L 496.39 353.50 L 495.21 356.59 L 493.63 359.51 L 491.70 362.17 L 489.40 364.59 L 486.82 366.70 L 483.97 368.48 L 480.84 369.94 L 477.55 370.99 L 474.08 371.63 L 470.39 371.84 L 466.71 371.57 L 463.25 370.88 L 459.98 369.77 L 456.87 368.26 L 454.05 366.43 L 451.50 364.27 L 449.25 361.81 L 447.36 359.12 L 445.83 356.18 L 444.70 353.07 L 444.03 349.79 L 443.80 346.32 L 444.09 342.85 L 444.82 339.59 L 445.99 336.49 L 447.57 333.57 L 449.50 330.92 L 451.80 328.49 L 454.39 326.38 L 457.23 324.60 L 460.36 323.14 L 463.65 322.09 L 467.12 321.45 L 470.81 321.24 Z" fill="#eba4a2" fill-rule="nonzero" group-id="5,20" node-id="283" stroke="none" target-height="50.600006" target-width="53.600006" target-x="443.8" target-y="321.24"></path></g><g node-id="345"><path d="M 436.04 299.41 L 438.45 299.72 L 440.58 300.58 L 442.40 301.92 L 443.80 303.63 L 444.70 305.65 L 445.02 307.93 L 444.69 310.20 L 443.78 312.21 L 442.38 313.93 L 440.55 315.26 L 438.42 316.10 L 436.00 316.41 L 433.59 316.09 L 431.46 315.24 L 429.64 313.90 L 428.24 312.18 L 427.34 310.16 L 427.02 307.89 L 427.35 305.62 L 428.26 303.60 L 429.66 301.89 L 431.49 300.56 L 433.62 299.71 L 436.04 299.41 Z" fill="#eba4a2" fill-rule="nonzero" group-id="5,21" node-id="288" stroke="none" target-height="17" target-width="18" target-x="427.02" target-y="299.41"></path></g><g node-id="346"><path d="M 471.39 288.79 L 473.80 289.10 L 475.93 289.96 L 477.75 291.30 L 479.15 293.01 L 480.05 295.03 L 480.37 297.31 L 480.04 299.58 L 479.13 301.59 L 477.73 303.31 L 475.90 304.64 L 473.77 305.48 L 471.35 305.79 L 468.94 305.47 L 466.81 304.62 L 464.99 303.28 L 463.59 301.56 L 462.69 299.54 L 462.37 297.27 L 462.70 295.00 L 463.61 292.98 L 465.01 291.27 L 466.84 289.94 L 468.97 289.09 L 471.39 288.79 Z" fill="#eba4a2" fill-rule="nonzero" group-id="5,22" node-id="293" stroke="none" target-height="17" target-width="18" target-x="462.37" target-y="288.79"></path></g><path d="M 508.16 300.82 L 510.57 301.14 L 512.70 301.99 L 514.52 303.33 L 515.92 305.05 L 516.82 307.07 L 517.14 309.34 L 516.81 311.61 L 515.90 313.63 L 514.49 315.34 L 512.66 316.67 L 510.53 317.52 L 508.12 317.82 L 505.71 317.51 L 503.58 316.65 L 501.76 315.31 L 500.36 313.60 L 499.46 311.58 L 499.14 309.30 L 499.47 307.03 L 500.38 305.02 L 501.78 303.30 L 503.61 301.97 L 505.74 301.13 L 508.16 300.82 Z" fill="#eba4a2" fill-rule="nonzero" group-id="5,23" node-id="298" stroke="none" target-height="17" target-width="18" target-x="499.14" target-y="300.82"></path></g><g node-id="330"><path d="M 126.50 459.00 C 119.00 455.40 109.90 457.90 106.10 464.70 C 102.90 470.30 104.50 477.20 109.50 481.40 C 106.00 482.50 102.60 483.90 99.50 485.80 C 98.10 483.40 95.90 481.30 93.00 479.90 C 85.50 476.30 76.40 478.80 72.60 485.60 C 68.80 492.40 71.80 500.80 79.40 504.40 C 80.20 504.80 81.00 505.10 81.80 505.30 C 80.80 507.50 80.00 509.80 79.50 512.00 C 72.00 508.60 63.10 511.10 59.40 517.80 C 55.60 524.60 58.60 533.00 66.20 536.60 C 71.20 539.00 76.90 538.70 81.20 536.30 C 85.20 546.40 93.10 555.30 104.40 560.80 C 127.70 572.10 156.20 564.10 168.00 543.00 C 179.80 521.90 170.40 495.60 147.10 484.30 C 142.30 482.00 137.30 480.50 132.30 479.70 C 132.80 479.10 133.20 478.50 133.50 477.90 C 137.00 471.10 134.00 462.70 126.50 459.00 Z" fill="#ffffff" fill-rule="nonzero" group-id="6" node-id="304" stroke="#040000" stroke-linecap="butt" stroke-width="3" target-height="116.69998" target-width="124.200005" target-x="55.6" target-y="455.4"></path><g node-id="348"><path d="M 132.14 499.19 L 135.82 499.96 L 139.23 501.11 L 142.38 502.63 L 145.33 504.53 L 147.93 506.70 L 150.22 509.14 L 152.18 511.85 L 153.73 514.73 L 154.89 517.80 L 155.62 521.00 L 155.87 524.29 L 155.65 527.70 L 154.91 531.04 L 153.75 534.13 L 152.16 536.99 L 150.18 539.62 L 147.89 541.95 L 145.25 544.00 L 142.37 545.71 L 139.26 547.06 L 135.90 548.06 L 132.45 548.64 L 128.86 548.79 L 125.11 548.50 L 121.42 547.73 L 118.02 546.58 L 114.86 545.06 L 111.92 543.16 L 109.31 541.00 L 107.02 538.55 L 105.06 535.84 L 103.51 532.96 L 102.35 529.89 L 101.62 526.69 L 101.37 523.41 L 101.59 519.99 L 102.33 516.65 L 103.50 513.56 L 105.09 510.70 L 107.06 508.08 L 109.36 505.74 L 112.00 503.69 L 114.88 501.98 L 117.98 500.63 L 121.34 499.63 L 124.80 499.05 L 128.38 498.90 L 132.14 499.19 Z" fill="#eba4a2" fill-rule="nonzero" group-id="6,24" node-id="308" stroke="none" target-height="49.889984" target-width="54.499992" target-x="101.37" target-y="498.9"></path></g><g node-id="349"><path d="M 75.40 516.96 L 77.78 517.60 L 79.80 518.71 L 81.45 520.26 L 82.63 522.11 L 83.26 524.18 L 83.29 526.42 L 82.66 528.58 L 81.49 530.41 L 79.86 531.87 L 77.85 532.91 L 75.61 533.44 L 73.15 533.41 L 70.77 532.78 L 68.75 531.66 L 67.09 530.12 L 65.92 528.27 L 65.28 526.19 L 65.26 523.95 L 65.88 521.80 L 67.06 519.97 L 68.69 518.51 L 70.70 517.46 L 72.94 516.93 L 75.40 516.96 Z" fill="#eba4a2" fill-rule="nonzero" group-id="6,25" node-id="313" stroke="none" target-height="16.51001" target-width="18.029999" target-x="65.26" target-y="516.93"></path></g><g node-id="350"><path d="M 88.01 484.75 L 90.39 485.38 L 92.41 486.50 L 94.07 488.04 L 95.24 489.89 L 95.88 491.97 L 95.90 494.21 L 95.28 496.36 L 94.10 498.19 L 92.47 499.65 L 90.46 500.70 L 88.22 501.23 L 85.76 501.19 L 83.38 500.56 L 81.36 499.45 L 79.71 497.90 L 78.53 496.05 L 77.90 493.98 L 77.87 491.73 L 78.50 489.58 L 79.67 487.75 L 81.30 486.29 L 83.31 485.25 L 85.55 484.72 L 88.01 484.75 Z" fill="#eba4a2" fill-rule="nonzero" group-id="6,26" node-id="318" stroke="none" target-height="16.51001" target-width="18.029999" target-x="77.87" target-y="484.72"></path></g><path d="M 120.97 465.38 L 123.35 466.01 L 125.37 467.12 L 127.02 468.67 L 128.20 470.52 L 128.84 472.60 L 128.86 474.84 L 128.23 476.99 L 127.06 478.82 L 125.43 480.28 L 123.42 481.32 L 121.18 481.85 L 118.72 481.82 L 116.34 481.19 L 114.32 480.08 L 112.66 478.53 L 111.49 476.68 L 110.85 474.60 L 110.83 472.36 L 111.45 470.21 L 112.63 468.38 L 114.26 466.92 L 116.27 465.87 L 118.51 465.34 L 120.97 465.38 Z" fill="#eba4a2" fill-rule="nonzero" group-id="6,27" node-id="323" stroke="none" target-height="16.51001" target-width="18.029999" target-x="110.83" target-y="465.34"></path></g></svg>