<svg viewBox="0 0 194.03 297.15" xmlns="http://www.w3.org/2000/svg"><defs><style>.cls-1{fill:#ab8b70;}.cls-2{fill:#060001;}.cls-3{fill:#93cde8;}.cls-4{fill:#77b7c9;}.cls-5{fill:#f8e3c8;}.cls-6{fill:#f2ccb4;}.cls-7{fill:#fff;}</style></defs><title>资源 4</title><g id="图层_2"><g id="图层_1-2"><path d="M136.05,295.15c-9.29,0-18.13-8.5-19.7-18.95-1.63-10.84,5.5-21.08,15.9-22.83a18.62,18.62,0,0,1,3.07-.26c9.44,0,17.35,7.07,18.81,16.81,1.55,10.32-4.77,23.21-15.56,25a16.36,16.36,0,0,1-2.52.2Z" class="cls-1"></path><path d="M135.32,255.11c8.26,0,15.51,6.28,16.84,15.1,1.47,9.79-4.58,21.19-13.92,22.76a12.41,12.41,0,0,1-2.18.18c-8.54,0-16.38-8.23-17.73-17.25-1.47-9.78,4.91-19,14.25-20.56a17,17,0,0,1,2.74-.23m0-4a20.36,20.36,0,0,0-3.4.29c-11.47,1.92-19.34,13.18-17.55,25.1,1.72,11.39,11.44,20.65,21.69,20.65a16.91,16.91,0,0,0,2.84-.23c5.6-.94,10.5-4.57,13.8-10.23a26.58,26.58,0,0,0,3.41-17.07c-1.61-10.72-10.36-18.51-20.79-18.51Z" class="cls-2"></path><path d="M118.47,277.92a2.08,2.08,0,0,1-1.93-1.33c-.16-.48-8.75-27.33-10.47-32.71a2,2,0,0,1,.25-1.72,2,2,0,0,1,1.5-.88l26.49-2.15h.19l26.57.34a2,2,0,0,1,1.56.78A2,2,0,0,1,163,242c-.87,3.35-8.46,32.78-8.59,33.26a2,2,0,0,1-1.7,1.45l-.28,0a2,2,0,0,1-1.11-.34c-3.59-2.4-8.92-3.78-14.62-3.78l-1.3,0c-6.22.23-11.92,2-15.64,4.9a2,2,0,0,1-1.23.42l0-2Z" class="cls-3"></path><path d="M134.47,241.13l26.57.34s-8.44,32.75-8.58,33.22h-.05c-3.79-2.54-9.42-4.12-15.73-4.12l-1.37,0c-6.87.25-12.92,2.31-16.8,5.32h-.08c-.17-.46-10.45-32.64-10.45-32.64l26.49-2.14m0-4h-.32l-26.49,2.14a4,4,0,0,0-3.49,5.21c3.1,9.69,10.32,32.28,10.48,32.75a4.07,4.07,0,0,0,3.82,2.68h0a4,4,0,0,0,2.44-.84c3.35-2.6,8.77-4.27,14.5-4.48l1.22,0c5.31,0,10.24,1.25,13.5,3.44a4,4,0,0,0,2.23.68l.45,0a4,4,0,0,0,3.47-3h0c.41-1.54,6.65-25.72,8.59-33.24a4,4,0,0,0-3.83-5l-26.57-.34Z" class="cls-2"></path><path d="M78.5,295.15A16.23,16.23,0,0,1,76,295c-10.79-1.82-17.12-14.71-15.57-25,1.46-9.74,9.38-16.81,18.82-16.81a18.71,18.71,0,0,1,3.07.26c10.39,1.75,17.52,12,15.89,22.83C96.63,286.65,87.8,295.15,78.5,295.15Z" class="cls-1"></path><path d="M79.24,255.11a17,17,0,0,1,2.73.23c9.35,1.57,15.73,10.78,14.26,20.56-1.36,9-9.2,17.25-17.73,17.25a12.41,12.41,0,0,1-2.18-.18C67,291.4,60.93,280,62.4,270.21a17.32,17.32,0,0,1,16.84-15.1m0-4h0c-10.44,0-19.19,7.79-20.8,18.51a26.65,26.65,0,0,0,3.41,17.07c3.31,5.66,8.21,9.29,13.81,10.23a16.83,16.83,0,0,0,2.84.23c10.24,0,20-9.26,21.68-20.65,1.79-11.92-6.08-23.18-17.54-25.1a20.54,20.54,0,0,0-3.4-.29Z" class="cls-2"></path><path d="M96,277.92a2,2,0,0,1-1.18-.42c-3.73-2.89-9.43-4.67-15.65-4.9l-1.29,0c-5.71,0-11,1.38-14.62,3.78a2,2,0,0,1-1.11.34l-.29,0a2,2,0,0,1-1.69-1.43c-.14-.5-7.73-29.93-8.59-33.28a2,2,0,0,1,1.91-2.5l26.59-.34h.16l26.5,2.15a2,2,0,0,1,1.5.88,2,2,0,0,1,.24,1.72c-1.72,5.38-10.3,32.23-10.46,32.69a2.08,2.08,0,0,1-1.93,1.35Z" class="cls-3"></path><path d="M80.08,241.13l26.5,2.14s-10.29,32.18-10.45,32.64H96c-3.87-3-9.93-5.07-16.8-5.32l-1.36,0c-6.32,0-11.95,1.58-15.73,4.12h-.06c-.13-.47-8.58-33.22-8.58-33.22l26.57-.34m0-4h0l-26.57.34a4,4,0,0,0-3.82,5c1.94,7.55,8.22,31.87,8.59,33.25h0v.05h0a4.06,4.06,0,0,0,3.91,2.93,4,4,0,0,0,2.22-.68c3.27-2.19,8.19-3.44,13.51-3.44l1.22,0c5.72.21,11.14,1.88,14.49,4.48a4,4,0,0,0,2.38.84h.12a4,4,0,0,0,3.81-2.68c.17-.47,7.39-23.06,10.49-32.75a4,4,0,0,0-3.49-5.21l-26.49-2.14Z" class="cls-2"></path><path d="M16.82,149.05a13.88,13.88,0,0,1-8.07-2.57c-6-4.24-9.19-13.94-4.49-20.56,2.46-3.48,6.65-5.47,11.51-5.47a16.34,16.34,0,0,1,9.38,2.88,13.94,13.94,0,0,1,5.71,9.14,14.27,14.27,0,0,1-14,16.58Z" class="cls-1"></path><path d="M15.77,122.45A14.34,14.34,0,0,1,24,125a12.21,12.21,0,0,1-7.17,22.09,11.93,11.93,0,0,1-6.91-2.2C4.47,141,2,132.56,5.89,127.07a11.87,11.87,0,0,1,9.88-4.62m0-4c-5.51,0-10.3,2.3-13.15,6.31a15.59,15.59,0,0,0-2.1,12.78A18.47,18.47,0,0,0,7.6,148.11a15.87,15.87,0,0,0,9.22,2.94,16.22,16.22,0,0,0,9.48-29.36,18.37,18.37,0,0,0-10.53-3.24Z" class="cls-2"></path><path d="M27,163S7.09,144.48,6.6,144c0,0,0,0,0,0a16.57,16.57,0,0,0,13.57-6.66,16.61,16.61,0,0,0,2.19-15s0-.05.06,0c.63.32,24.32,13.57,24.32,13.57" class="cls-3"></path><path d="M27,165a2,2,0,0,1-1.36-.53c-3.32-3.1-19.93-18.55-20.43-19.06a2.05,2.05,0,0,1-.38-2.28,2,2,0,0,1,1.82-1.16,14.57,14.57,0,0,0,12-5.85,14.62,14.62,0,0,0,1.9-13.19,2,2,0,0,1,.33-1.85,2.1,2.1,0,0,1,2.55-.57c.61.31,20.41,11.38,24.38,13.59a2,2,0,0,1-2,3.49l-20.6-11.5a18,18,0,0,1-14.09,19.38c4.16,3.89,11.7,10.91,17.25,16.07A2,2,0,0,1,27,165Z" class="cls-2"></path><path d="M107.77,266.25c-.47,0-.92,0-1.37-.05h-.25c-.45,0-.91.05-1.37.05a28.76,28.76,0,0,1-18.21-6.4,29.38,29.38,0,0,1-7.76,1,28.5,28.5,0,0,1-25.09-14.65,69.08,69.08,0,0,1-8.15-6.52c-9.86-2.19-17-11.81-17-23.12a26,26,0,0,1,.23-3.35c-.25-.8-.47-1.51-.67-2.19A25,25,0,0,1,22.5,195a25.57,25.57,0,0,1,3.15-12.38,88.58,88.58,0,0,1,2-12.69,26.26,26.26,0,0,1-.79-6.33c0-9.35,4.88-17.73,12.48-21.54a88.77,88.77,0,0,1,7.57-10.14c15.14-17.51,36.43-28,58.47-28.73a1.84,1.84,0,0,1,.41,0l.53,0,.54,0a2.09,2.09,0,0,1,.43,0c25.37.88,49.49,14.58,64.59,36.71.48.71,1,1.43,1.43,2.16,7.6,3.8,12.48,12.19,12.48,21.54a26.26,26.26,0,0,1-.79,6.33,90,90,0,0,1,2,12.69A25.56,25.56,0,0,1,190,195a25.06,25.06,0,0,1-5.66,16.06c-.2.68-.42,1.39-.68,2.19a24.3,24.3,0,0,1,.23,3.35c0,11.31-7.09,20.93-17,23.12a68.28,68.28,0,0,1-8.15,6.52,28.48,28.48,0,0,1-25.08,14.65,29.33,29.33,0,0,1-7.76-1A28.76,28.76,0,0,1,107.77,266.25Z" class="cls-3"></path><path d="M106.81,105.15v0c25.7.76,49,14.74,63.36,35.84.59.85,1.15,1.72,1.7,2.59,7,3.23,11.87,11,11.87,20a24.07,24.07,0,0,1-.85,6.3,88.08,88.08,0,0,1,2.05,13.31A23.54,23.54,0,0,1,188,195a23,23,0,0,1-5.47,15.09c-.28,1-.59,2-.91,3a24,24,0,0,1,.27,3.53c0,10.7-6.89,19.56-15.92,21.28a65.64,65.64,0,0,1-8.73,7,26.25,26.25,0,0,1-23.54,14,27.2,27.2,0,0,1-8.23-1.26,26.72,26.72,0,0,1-17.74,6.62c-.51,0-1,0-1.5-.06s-1,.06-1.49.06A26.74,26.74,0,0,1,87,257.63a27.25,27.25,0,0,1-8.23,1.26,26.26,26.26,0,0,1-23.55-14,64.91,64.91,0,0,1-8.72-7c-9-1.72-15.93-10.58-15.93-21.28a24,24,0,0,1,.28-3.53c-.32-1-.63-2-.91-3A23,23,0,0,1,24.5,195a23.54,23.54,0,0,1,3.11-11.79,86.83,86.83,0,0,1,2.05-13.31,24.07,24.07,0,0,1-.85-6.3c0-9,4.9-16.76,11.86-20a86.33,86.33,0,0,1,7.7-10.38c14.44-16.69,35-27.38,57.37-28v0l.53,0,.54,0m-1.07-4a4.89,4.89,0,0,0-.66,0c-22.52.83-44.27,11.53-59.73,29.42a87.84,87.84,0,0,0-7.45,9.91c-8,4.25-13.09,13.16-13.09,23.07a27.93,27.93,0,0,0,.74,6.34A91.22,91.22,0,0,0,23.69,182a27.63,27.63,0,0,0-3.19,13,27.09,27.09,0,0,0,5.86,17c.14.45.28.93.44,1.43a28.62,28.62,0,0,0-.19,3.16c0,12.05,7.5,22.33,18,25a70.13,70.13,0,0,0,7.6,6.06,30.53,30.53,0,0,0,26.61,15.28,31.4,31.4,0,0,0,7.3-.85,30.85,30.85,0,0,0,18.67,6.21c.54,0,1,0,1.48-.06h0c.44,0,.94.06,1.48.06A30.83,30.83,0,0,0,126.44,262a31.33,31.33,0,0,0,7.3.85,30.54,30.54,0,0,0,26.61-15.28,70.13,70.13,0,0,0,7.6-6.06c10.49-2.62,18-12.9,18-25a26.37,26.37,0,0,0-.19-3.16c.16-.5.31-1,.44-1.43A27,27,0,0,0,192,195a27.63,27.63,0,0,0-3.19-13A89.58,89.58,0,0,0,187,169.94a27.93,27.93,0,0,0,.74-6.34c0-9.91-5.1-18.82-13.09-23.07-.41-.63-.8-1.22-1.18-1.77-15.42-22.6-40.07-36.62-66-37.56a4.48,4.48,0,0,0-.64,0h-.15l-.38,0-.37,0Z" class="cls-2"></path><path d="M35.53,65.68c-6.14,0-8.38-3.07-9.17-5.64-2.8-9,8.43-27.11,23.12-37.16l.13-.09A13,13,0,0,1,55.51,21c3.11,0,5.14,2.13,5.56,5.84,1.21,10.51-10.5,35.92-21.68,38.52l-.1,0a23.42,23.42,0,0,1-3.75.33Z" class="cls-4"></path><path d="M55.51,22.47c11.71,0-3.76,38.45-16.46,41.4a22,22,0,0,1-3.52.31c-17.35,0-4.27-27,14.79-40.06a11.53,11.53,0,0,1,5.19-1.65m0-3a14.17,14.17,0,0,0-6.6,2,2.61,2.61,0,0,0-.28.17A68,68,0,0,0,30.23,40.8c-2.85,4.53-7.34,13.1-5.31,19.69.78,2.5,3.19,6.69,10.61,6.69a25.28,25.28,0,0,0,4-.35l.2,0c12-2.79,24.12-28.93,22.83-40.15-.51-4.49-3.15-7.17-7.05-7.17Z" class="cls-2"></path><path d="M170.17,141c-13.4,12.4-32.4,17.31-53.47,17.31-22.21,0-42.11-5.46-55.6-19.38a18.71,18.71,0,0,1-12.73-5.72c14.44-16.69,35-27.38,57.37-28v0l.53,0,.54,0v0C132.51,105.94,155.77,119.92,170.17,141Z" class="cls-4"></path><path d="M106.27,155c-24.64,0-43.64-6.53-56.49-19.43a20.54,20.54,0,0,1-19-20.46,20.27,20.27,0,0,1,.36-3.76A20.42,20.42,0,0,1,31,81.91c.08-1,.18-2,.3-2.88a20.44,20.44,0,0,1,9.38-27.91A75.15,75.15,0,0,1,58.18,30.54a17.59,17.59,0,0,1,16.35-13.1A17.48,17.48,0,0,1,90.73,6.72a15.51,15.51,0,0,1,1.9.12A17.57,17.57,0,0,1,117.05,7a17.86,17.86,0,0,1,3.24-.31,17.5,17.5,0,0,1,16.23,10.8,17.43,17.43,0,0,1,14.1,9.82c.08.17.16.33.23.49a76.21,76.21,0,0,1,21,23.29,20.6,20.6,0,0,1,11.58,16.47,18.71,18.71,0,0,1,.1,2,20.42,20.42,0,0,1-2.3,9.42c.11.93.21,1.9.3,2.88a20.43,20.43,0,0,1-.13,29.46,19.47,19.47,0,0,1,.37,3.76,20.54,20.54,0,0,1-19,20.46C149.92,148.49,130.92,155,106.27,155Z" class="cls-3"></path><path d="M104.74,4a15.58,15.58,0,0,1,11.65,5.23,15.51,15.51,0,0,1,18.7,10.21,15.56,15.56,0,0,1,13.73,8.77c.14.3.28.61.41.91a73.73,73.73,0,0,1,21.21,23.55,18.57,18.57,0,0,1,11,15.12c.06.6.09,1.21.09,1.82a18.35,18.35,0,0,1-2.37,9c.18,1.38.33,2.78.44,4.19a18.43,18.43,0,0,1-.4,27.82,18.31,18.31,0,0,1,.57,4.47,18.6,18.6,0,0,1-17.9,18.51C148.39,147.56,128.49,153,106.27,153s-42.11-5.46-55.6-19.38a18.59,18.59,0,0,1-17.9-18.51,18.31,18.31,0,0,1,.57-4.47,18.42,18.42,0,0,1-.4-27.82c.11-1.41.25-2.81.44-4.19a18.44,18.44,0,0,1,8.73-26A73.45,73.45,0,0,1,60,31.66,15.52,15.52,0,0,1,75.18,19.43l.73,0A15.55,15.55,0,0,1,90.73,8.72,15,15,0,0,1,93.34,9a15.52,15.52,0,0,1,11.4-5m0-4a19.63,19.63,0,0,0-12.8,4.77c-.41,0-.81,0-1.21,0A19.49,19.49,0,0,0,73.2,15.53,19.62,19.62,0,0,0,56.42,29.4,77,77,0,0,0,39.26,49.6a22.44,22.44,0,0,0-10,29.79c-.06.53-.12,1.07-.17,1.62a22.41,22.41,0,0,0-.09,31,21.58,21.58,0,0,0-.22,3.08,22.54,22.54,0,0,0,20.11,22.39C62.1,150.46,81.4,157,106.27,157s44.17-6.56,57.4-19.5a22.54,22.54,0,0,0,20.11-22.39,21.61,21.61,0,0,0-.23-3.08,22.41,22.41,0,0,0-.09-31c-.05-.55-.1-1.09-.17-1.62a22.36,22.36,0,0,0,2.25-9.78c0-.77,0-1.52-.11-2.23A22.57,22.57,0,0,0,173.29,49.6a78.43,78.43,0,0,0-20.84-23.08l0,0a19.41,19.41,0,0,0-14.55-10.81,19.48,19.48,0,0,0-17.59-11,18.79,18.79,0,0,0-2.59.18,19.63,19.63,0,0,0-13-4.9Z" class="cls-2"></path><path d="M164.19,200.07c-6.1,0-12.34-4.52-14.51-10.51a13.9,13.9,0,0,1,.53-10.77,14.2,14.2,0,0,1,26.15,1.11,16.55,16.55,0,0,1-.21,11.33,13.4,13.4,0,0,1-7.83,8.12,12,12,0,0,1-4.13.72Z" class="cls-1"></path><path d="M163.1,172.65a12.07,12.07,0,0,1,11.37,7.93c2.27,6.26-.51,14.6-6.84,16.89a10,10,0,0,1-3.44.6c-5.38,0-10.76-4-12.63-9.19a12.13,12.13,0,0,1,7.35-15.49,12.35,12.35,0,0,1,4.19-.74m0-4a16.31,16.31,0,0,0-14.7,9.28,15.9,15.9,0,0,0-.6,12.31c2.48,6.85,9.37,11.83,16.39,11.83a14,14,0,0,0,4.81-.84,15.6,15.6,0,0,0,9-9.29,18.56,18.56,0,0,0,.22-12.72,16.13,16.13,0,0,0-15.14-10.57Z" class="cls-2"></path><path d="M170.81,156s5.77,26.52,5.89,27.22c0,0,0,0,0,0A16.24,16.24,0,0,0,151.37,192s-.05,0-.07,0c-.34-.62-12.24-25-12.24-25" class="cls-3"></path><path d="M151.35,194a2.07,2.07,0,0,1-1.81-1.05c-.34-.63-10.28-21-12.27-25.1a2,2,0,0,1,3.59-1.75l10.36,21.21a18,18,0,0,1,22.63-7.88c-1.2-5.58-3.39-15.65-5-23a2,2,0,0,1,3.91-.85c1,4.43,5.79,26.6,5.91,27.3a2,2,0,0,1-1,2.09,2,2,0,0,1-2.16-.08,14.23,14.23,0,0,0-22.23,7.73,2,2,0,0,1-1.33,1.33A2.1,2.1,0,0,1,151.35,194Z" class="cls-2"></path><path d="M97.8,130.6c-32.5,0-52.69-16-52.69-41.81,0-12.17,4.51-27.32,11.76-39.53a2,2,0,0,1,1.72-1h.13a2,2,0,0,1,1.7,1.19,13.71,13.71,0,0,0,12.7,8,14.24,14.24,0,0,0,9.16-3.3,2,2,0,0,1,1.28-.47,1.88,1.88,0,0,1,.53.07A2,2,0,0,1,85.45,55a14.55,14.55,0,0,0,27.08,0,2,2,0,0,1,1.36-1.27,2,2,0,0,1,1.82.4,14.22,14.22,0,0,0,9.16,3.3,13.75,13.75,0,0,0,12.29-7.16,2,2,0,0,1,1.7-1.06h.07a2,2,0,0,1,1.7.94c7.55,12.21,12.25,27,12.25,38.61C152.88,114.19,131.26,130.6,97.8,130.6Z" class="cls-5"></path><path d="M58.59,50.28a15.74,15.74,0,0,0,14.53,9.18,16.15,16.15,0,0,0,10.44-3.77,16.55,16.55,0,0,0,30.86,0,16.17,16.17,0,0,0,10.45,3.77,15.83,15.83,0,0,0,14.06-8.22c7.64,12.35,11.95,26.59,11.95,37.55,0,24.3-21.12,39.81-53.08,39.81S47.11,113.09,47.11,88.79c0-11.24,4-25.94,11.48-38.51m0-4a4,4,0,0,0-3.44,2c-7.42,12.5-12,28-12,40.55,0,27,21,43.81,54.69,43.81,16.6,0,30.75-4,40.91-11.58a38.83,38.83,0,0,0,16.17-32.23c0-12.14-4.7-27-12.55-39.66a4,4,0,0,0-3.4-1.89h-.14a4,4,0,0,0-3.4,2.13,11.78,11.78,0,0,1-10.52,6.09A12.24,12.24,0,0,1,117,52.63a4,4,0,0,0-2.58-.94,4.29,4.29,0,0,0-1.06.14,4,4,0,0,0-2.72,2.55,12.56,12.56,0,0,1-23.3,0,4,4,0,0,0-2.71-2.55,4.3,4.3,0,0,0-1.07-.14,4,4,0,0,0-2.57.94,12.26,12.26,0,0,1-7.87,2.83,11.7,11.7,0,0,1-10.86-6.78,4,4,0,0,0-3.42-2.39Z" class="cls-2"></path><path d="M70.81,62.9a18.67,18.67,0,0,0,11.38-3.77c2.3,6.13,9,10.56,16.8,10.56s14.51-4.43,16.81-10.56a18.67,18.67,0,0,0,11.38,3.77A17.81,17.81,0,0,0,141.64,56c-.85-1.6-1.76-3.17-2.71-4.72a15.83,15.83,0,0,1-14.06,8.22,16.17,16.17,0,0,1-10.45-3.77,16.55,16.55,0,0,1-30.86,0,16.15,16.15,0,0,1-10.44,3.77,15.74,15.74,0,0,1-14.53-9.18q-1.46,2.46-2.73,5A17.64,17.64,0,0,0,70.81,62.9Z" class="cls-6"></path><ellipse ry="11.07" rx="8.85" cy="76.21" cx="71.83" class="cls-2"></ellipse><rect rx="2.76" height="5.52" width="5.52" y="78.13" x="72.5" class="cls-7"></rect><path d="M69.28,77.3h0a4.62,4.62,0,0,0-4.62-4.63h0a4.62,4.62,0,0,0,4.62-4.62h0a4.62,4.62,0,0,0,4.62,4.62h0A4.62,4.62,0,0,0,69.28,77.3Z" class="cls-7"></path><ellipse ry="12.89" rx="10.3" cy="76.21" cx="119.87" class="cls-2"></ellipse><rect rx="3.32" height="6.65" width="6.65" y="78.51" x="120.38" class="cls-7"></rect><path d="M117.92,79.48h0a6.81,6.81,0,0,0-6.81-6.81h0a6.81,6.81,0,0,0,6.81-6.81h0a6.81,6.81,0,0,0,6.81,6.81h0A6.81,6.81,0,0,0,117.92,79.48Z" class="cls-7"></path><path d="M85.44,104c-4.08,0-7.4-3.74-7.4-8.34a1.5,1.5,0,0,1,3,0c0,2.95,2,5.34,4.4,5.34s4.4-2.39,4.4-5.34a1.5,1.5,0,0,1,3,0C92.84,100.22,89.52,104,85.44,104Z" class="cls-2"></path><path d="M98.27,104c-4,0-8.43-3.56-8.43-8.34a1.5,1.5,0,0,1,3,0A5.76,5.76,0,0,0,98.27,101c2.42,0,4.4-2.39,4.4-5.34a1.5,1.5,0,0,1,3,0C105.67,100.22,102.35,104,98.27,104Z" class="cls-2"></path><path d="M91.34,97.72a1.5,1.5,0,0,1-1.5-1.5V92.07a1.5,1.5,0,0,1,3,0v4.15A1.5,1.5,0,0,1,91.34,97.72Z" class="cls-2"></path><path d="M93.67,92.41,97,88.76a2.71,2.71,0,0,0-2-4.52H87.73a2.71,2.71,0,0,0-2,4.52L89,92.41A3.14,3.14,0,0,0,93.67,92.41Z" class="cls-2"></path><path d="M181.45,67.79a21.7,21.7,0,0,1-4.87.49c-12.78-.85-33-32.29-27.76-40.07.14.3.28.61.41.91a73.73,73.73,0,0,1,21.21,23.55A18.57,18.57,0,0,1,181.45,67.79Z" class="cls-4"></path><path d="M179.47,65.22c-12.76-.85-30.38-27.7-30-38.55.13-4,2.4-6.25,6.22-6.25a16.74,16.74,0,0,1,5.25,1l.15.06c18,8.44,33.46,26.54,31.24,36.55-.73,3.27-3.53,7.16-12.74,7.16h-.1Z" class="cls-4"></path><path d="M155.67,21.92a15,15,0,0,1,4.76.95c24.23,11.36,44,40.84,19.14,40.85-14.59-1-38.93-41.8-23.9-41.8m0-3h0c-4.6,0-7.56,2.95-7.72,7.7C147.81,31,150.46,40,158.41,50.77c3.4,4.6,12.24,15.36,21,15.94h.2c4.61,0,12.59-1.09,14.2-8.33s-4.67-16-8.58-20.46a73.91,73.91,0,0,0-23.48-17.78l-.3-.12a17.82,17.82,0,0,0-5.74-1.11Z" class="cls-2"></path><path d="M91.19,243.13a10,10,0,1,1,6.55-2.45A10,10,0,0,1,91.19,243.13Z" class="cls-3"></path><path d="M91.18,225.12A8,8,0,1,1,86,227.07a8,8,0,0,1,5.23-1.95m0-4h0a12,12,0,1,0,9.08,4.14,12,12,0,0,0-9.08-4.14Z" class="cls-2"></path><line y2="236.07" x2="88.24" y1="230.17" x1="94.14" class="cls-3"></line><path d="M88.24,238.07a2,2,0,0,1-1.41-3.41l5.89-5.9a2,2,0,0,1,2.83,2.83l-5.9,5.89A2,2,0,0,1,88.24,238.07Z" class="cls-2"></path><line y2="230.17" x2="88.24" y1="236.07" x1="94.14" class="cls-3"></line><path d="M94.14,238.07a2,2,0,0,1-1.42-.59l-5.89-5.89a2,2,0,0,1,2.82-2.83l5.9,5.9a2,2,0,0,1-1.41,3.41Z" class="cls-2"></path></g></g></svg>